<?xml version="1.0" encoding="UTF-8"?>
<svg id="Capa_1" data-name="Capa 1" xmlns="http://www.w3.org/2000/svg" viewBox="0 0 300 150">
  <defs>
    <style>
      .cls-1 {
        fill: #fff;
        stroke-width: 0px;
      }
    </style>
  </defs>
  <g>
    <path class="cls-1" d="M115.9,42.45c-.08-.12-.22-.18-.35-.17h0c-.2.03-.38.09-.52.14-2.34.79-4.68,1.59-7,2.39-.13.04-.23.08-.32.11-.5.16-.52.18-.71.66-.04.09-.08.2-.14.34-.15.35-.29.7-.43,1.04l-.24.57c-.06.03-.12.06-.17.09-.16.08-.3.15-.43.24-.22.14-.44.29-.65.43-.11.08-.22.15-.33.22-.02.02-.06.02-.1.04v-.09c0-.13,0-.25,0-.38,0-.43-.02-.85-.03-1.28-.02-.89-.04-1.81-.07-2.71-.03-.77-.08-1.56-.13-2.31-.02-.39-.05-.77-.07-1.15,0-.03,0-.07-.01-.1-.01-.1-.02-.18.02-.25h0s.08,0,.12,0l.79.06c.41.03.82.06,1.23.08.12.01.24.01.36.02h.16c.16.02.3-.05.4-.18.06-.08.12-.16.19-.24,1.6-1.92,3.21-3.84,4.81-5.77l.09-.13c.04-.09.04-.21-.03-.3-.05-.08-.13-.12-.21-.12h-.01c-.15,0-.3.04-.43.09-2.14.77-4.27,1.55-6.41,2.33l-.79.29c-.07.02-.12.04-.18.06-.44.15-.5.21-.57.89-.03.25-.06.5-.09.74-.02.13-.04.26-.05.39l-.2.12c-.13.08-.25.15-.36.22l-2.49,1.57c-2.87,1.81-5.74,3.62-8.61,5.43-.82.52-1.63,1.05-2.43,1.57-.45.29-.89.58-1.34.87-.03.02-.05.04-.08.06-.07.06-.13.1-.2.11-.01-.17-.02-.34-.03-.51-.02-.36-.05-.71-.06-1.07,0-.21-.02-.42-.04-.62-.02-.33-.05-.67-.05-1.01,0,0,.01,0,.02,0,.06,0,.11,0,.16,0,.5.04,1.03.02,1.62-.07,1.54-.2,2.7-.93,3.44-2.17.19-.33.36-.66.5-.97.48-1.14.75-2.41.85-4.02,0-.19-.02-.36-.1-.54-.34-.81-.82-1.52-1.43-2.09-.36-.35-.76-.68-1.31-1.06.14.02.28.05.42.08.64.18,1.23.34,1.79.51,1.01.29,2.21.6,3.46.71,1.34.12,2.54-.14,3.61-.76.67-.38,1.29-.85,1.83-1.38.42-.42.83-.87,1.23-1.32.07-.07.11-.2.1-.31-.02-.15-.15-.26-.32-.27-.12,0-.23,0-.33,0h-.94c-.48.01-.96.01-1.44.01-.13,0-.26,0-.4-.01h-.04c-.04-.18-.03-.35-.03-.51v-.12c0-.07,0-.13,0-.2-.01-.13-.02-.26.03-.38.04,0,.07.01.1.02.1.02.2.04.3.05.15,0,.34,0,.5-.05.11-.04.2-.11.29-.18.02-.01.05-.03.07-.05.04.03.08.05.12.08.05.04.11.07.16.11l.27.19c.29.2.58.41.88.59.18.12.4.22.64.28.18.05.34.04.47-.05.13-.09.22-.25.24-.45,0-.07,0-.14,0-.22,0,0,0,0,0,0,.07.03.13.06.19.1.17.11.34.22.51.33.23.15.47.31.7.46l.1.06c.17.11.35.22.54.3.26.1.44.06.55,0,.16-.09.27-.26.31-.5,0-.05,0-.09,0-.14,0-.04,0-.08,0-.11.07.06.14.12.21.18.09.08.17.15.26.23.22.19.45.39.68.57.19.14.42.26.66.36.38.15.74.08,1.02-.2.04-.04.07-.07.11-.11.01-.01.02-.02.04-.03.06.03.12.06.18.09.19.1.38.18.58.26.19.07.38.11.57.16.08.02.17.04.25.07.02.02.03.04.05.07.07.1.13.2.23.28.55.51,1.12.85,1.75,1.06.24.08.45.12.64.12h0c.19,0,.34-.06.45-.18.11-.12.15-.28.12-.48-.02-.17-.08-.33-.15-.47l-.1-.18c-.15-.27-.3-.55-.49-.8-.47-.61-.85-1.06-1.23-1.47-1.08-1.16-2.28-2.29-3.55-3.38-.67-.57-1.35-1.14-2.03-1.7-.63-.52-1.26-1.04-1.88-1.57-2.91-2.48-5.7-4.66-8.54-6.67-1.8-1.28-3.64-2.57-5.42-3.81-1.17-.81-2.33-1.63-3.5-2.45-1.59-1.12-3.4-2.05-5.4-2.75-1.68-.59-3.5-1.03-5.55-1.33-1.42-.2-2.62-.27-3.74-.23-.59.02-1.2.1-1.82.23-.93.21-1.7.57-2.37,1.1-.94.75-1.44,1.74-1.49,2.95-.03.91.12,1.82.47,2.79.06.16.12.32.18.48.09.23.18.48.25.72.12.4.23.81.31,1.22.08.38.05.79-.08,1.21-.1.35-.26.54-.5.61-.75.23-1.26.16-1.7-.23-.77-.67-1.69-.96-2.71-.88-.24.02-.49.04-.73.06-.2-.16-.39-.33-.59-.5l-.35-.3c0-1.65-.07-1.87-1.04-2.89,0-.01,0-.02,0-.03,0-.05,0-.11,0-.17-.01-.25-.1-.44-.26-.53-.4-.26-.95-.54-1.59-.39-.16.03-.32.1-.46.16-.35.15-.64.13-.93-.05-.34-.23-.69-.2-1.03.07-.02.02-.04.03-.06.05-.05.04-.08.07-.12.09.02-.06.04-.13.06-.19.02-.05.04-.1.05-.15.23-.72.32-1.37.27-2-.07-1.09-.58-1.89-1.52-2.4-.39-.21-.83-.38-1.38-.52-.98-.25-2.03-.36-3.42-.38-.08,0-.15,0-.22,0-1.77,0-3.55.22-5.3.65-1.67.41-3.26.98-4.88,1.57-1.49.54-2.71,1.26-3.76,2.2-.6.54-1.32,1.06-2.19,1.6-.66.4-1.38.83-2.26,1.34-3.39,1.95-6.47,4.22-9.14,6.73-.4.37-.81.75-1.21,1.13-.29.27-.57.54-.86.81l-.37.34c-.62.58-1.26,1.18-1.91,1.75-1.11.98-2.31,1.89-3.47,2.77l-.65.5c-.8.61-1.39,1.08-1.93,1.54-1.04.86-1.91,2.01-2.63,3.5-.06.12-.1.24-.13.36-.02.1-.01.2.04.28.06.08.14.14.24.15.12.02.23.03.34.02.59-.03,1.08-.2,1.45-.52.6-.51,1.31-.95,2.16-1.34.08-.03.14-.08.22-.12.05-.03.1-.06.14-.08.02-.01.04-.02.05-.03.02-.01.03-.02.04-.02v.04c.02.1.03.2.05.29.08.31.3.45.63.4.15-.03.27-.07.38-.14.14-.08.27-.18.4-.27l.63-.5c.24-.19.49-.39.74-.59,0,0,.01-.01.02-.02-.01.07-.02.13-.03.18-.03.26.04.48.18.62.15.13.37.18.62.14.27-.05.52-.15.71-.23.65-.27,1.24-.65,1.68-.95.07-.04.14-.08.22-.13,0,.04,0,.08,0,.12,0,.15.03.3.13.38.1.08.24.07.37.04.73-.14,1.3-.42,1.75-.86l.05-.06c.05-.05.09-.1.14-.14.02.02.03.02.04.03.31.37.53.43.96.29.14-.05.28-.11.4-.19.15-.1.29-.2.44-.3.08-.06.16-.12.24-.17.03-.02.07-.05.1-.08.06-.05.11-.1.19-.12.07.23.12.48.17.72l.04.21c.02.1.05.21.07.31.05.21.11.42.1.63-.02,0-.05,0-.07,0-.09,0-.18.01-.26.01h-1.81s-.06,0-.06,0c-.11,0-.2,0-.31.01-.13.02-.25.09-.31.2-.06.11-.07.24-.02.36.04.1.11.21.17.29.71.92,1.47,1.63,2.31,2.16.68.44,1.33.69,2.01.77.65.08,1.24.06,1.79-.04.86-.16,1.69-.35,2.38-.51.2-.05.39-.09.59-.14.7-.16,1.42-.34,2.14-.44.21-.03.41-.04.62-.03-.04.06-.07.12-.12.15-.33.31-.66.61-.99.9-.15.13-.3.26-.45.39-.16.14-.32.28-.48.42-.74.68-1.11,1.53-1.1,2.54,0,1.25.27,2.41.79,3.45.5.99,1.23,1.72,2.24,2.22.61.3,1.27.53,2.02.69.31.07.62.13.95.2h.07c-.05.59-.1,1.15-.14,1.73l-.08.99-.08-.04c-.13-.07-.24-.13-.35-.19-3.13-1.73-6.27-3.64-9.34-5.68-1.11-.74-2.22-1.5-3.3-2.24-.72-.5-1.44-.99-2.16-1.48-.21-.14-.33-.31-.4-.54-.05-.15-.1-.3-.15-.44-.06-.16-.12-.31-.16-.48-.09-.3-.27-.48-.57-.56-.04,0-.08-.02-.13-.04l-1.23-.43c-1.71-.59-3.42-1.19-5.13-1.79l-.09-.03c-.07-.02-.14-.05-.21-.06-.08-.02-.19-.04-.3-.02-.14.03-.25.1-.3.22-.05.11-.04.25.04.36.06.09.12.17.19.25l.04.04c.46.57.93,1.15,1.4,1.72.98,1.21,1.96,2.42,2.94,3.63.24.3.49.4.84.37.57-.05,1.16-.08,1.73-.11h.28s.1-.01.17,0c.01,0,.03,0,.04,0,0,.69-.05,1.35-.09,1.96-.04.67-.07,1.34-.09,1.99,0,.21-.02.42-.02.62-.01.47-.03.94-.06,1.42-.02.27-.03.54-.04.81-.01.36-.02.72-.06,1.1-.06-.03-.11-.05-.16-.09-.16-.1-.31-.2-.47-.3-.22-.14-.45-.29-.67-.42-.2-.12-.3-.26-.35-.49-.07-.34-.16-.68-.25-1.01l-.09-.33c-.06-.23-.18-.36-.4-.43-.35-.11-.68-.24-1.01-.37l-.97-.37c-2.04-.79-4.08-1.57-6.13-2.35l-.07-.03c-.12-.05-.25-.1-.39-.12-.1-.02-.22.02-.3.12-.08.1-.1.23-.04.34.06.12.15.23.24.35.52.62,1.03,1.23,1.55,1.84,1.22,1.45,2.48,2.94,3.7,4.42.23.28.49.4.84.4h.04c.59,0,1.18,0,1.75,0h.38c.1,0,.2.02.3.03h.06v.04c0,.07,0,.13,0,.19-.05.6-.1,1.19-.15,1.79-.08.88-.15,1.76-.22,2.64-.16,2.18-.25,4.42-.26,6.64-.01,2.34.08,4.79.26,7.26.15,2,.38,3.96.68,5.85.53,3.4,1.36,6.84,2.46,10.24.86,2.64,1.81,4.89,2.91,6.9,1.9,3.46,4.43,6.35,7.52,8.59,3.26,2.37,6.85,3.71,10.67,3.99,1.92.14,3.85-.03,5.74-.51,1.79-.45,3.56-1.15,5.38-2.16.54-.29,2.27-1.45,2.53-1.6.07-.04.13-.07.21-.11h0c-.02.12-.04.2-.07.29-.07.23-.78,2.27-1.02,2.94-.76,2.13-1.83,4.27-3.38,6.74-.05.08-.1.15-.15.22l-.08.13c-.04.07-.06.13-.09.21-.03.09,0,.19.05.27.05.08.14.12.23.13.05,0,.09,0,.13,0,.03,0,.05,0,.09,0,.79-.02,1.69-.04,2.56.08.06.01.11.02.17.03.19.02.38.05.55.12.01.21-.01.41-.04.62,0,.06-.01.12-.02.18-.04.3-.07.59-.11.88-.05.38-.09.76-.14,1.15-.07.62.18,1.06.74,1.3.22.1.48.17.77.22.48.08.96.09,1.43.04.05,0,.1,0,.16,0,.08,0,.17,0,.25,0,0,.13-.01.24-.01.36,0,.12-.01.25-.02.37-.01.33-.03.68-.01,1.01.04.71.43,1.2,1.13,1.4l.07.02c.11.03.22.06.34.08.89.18,1.77.22,2.59.25.12,0,.24,0,.35,0,.84,0,1.54-.09,2.2-.27.29-.08.57-.19.84-.32.4-.2.66-.53.77-.97.05-.19.08-.39.09-.62.03-.47-.07-.94-.17-1.35-.02-.06-.02-.13-.03-.2,0-.02,0-.04,0-.05.01,0,.03,0,.04-.01.06-.02.12-.04.16-.04.28,0,.58.01.86.05.17.02.35.06.52.09.18.04.36.07.55.1.64.09,1.03-.18,1.19-.79.06-.2.09-.4.09-.63.03-.68-.08-1.39-.39-2.3-.05-.14-.1-.28-.14-.43.17-.06.34-.07.51-.08h.05c.95-.04,1.9-.09,2.85-.14.12,0,.28-.02.43-.05.15-.03.26-.13.28-.25.03-.11-.02-.22-.12-.31-.12-.1-.2-.22-.29-.37-.11-.19-.22-.39-.34-.58-.28-.48-.57-.97-.84-1.46-1.39-2.51-2.46-5.16-3.18-7.88-.01-.06-.03-.12-.04-.2.01,0,.03.01.04.02.08.04.16.08.23.11,1.28.71,2.48,1.3,3.66,1.82,2.74,1.21,5.27,1.92,7.73,2.16,1.59.16,3.13.13,4.58-.08,2.05-.3,4.08-1,6.02-2.08,2.42-1.34,4.61-3.17,6.51-5.46,1.7-2.04,3.15-4.37,4.41-7.11,1.52-3.3,2.68-6.95,3.53-11.16.46-2.28.82-4.68,1.06-7.14.21-2.05.34-4.09.39-6.07.09-3.46,0-7.14-.28-11.91-.05-.87-.1-1.79-.14-2.7,0-.07,0-.13.02-.2,0,0,0-.01,0-.02h.35l.79.03c.5.02.99.04,1.49.06.24.01.5-.02.66-.32.05-.1.13-.19.22-.28.03-.03.06-.07.09-.1,1.67-1.89,3.34-3.78,5.01-5.67l.04-.04c.1-.11.2-.24.29-.37.07-.12.07-.26,0-.37ZM104.26,38.85c.07-.58.13-1.13.22-1.7.48-.19.97-.37,1.44-.54.24-.09.48-.17.72-.26l.69-.25c.52-.19,1.03-.38,1.55-.56.23-.08.45-.16.67-.25.44-.16.89-.33,1.36-.49-.94,1.14-1.88,2.27-2.83,3.41l-1.29,1.56c-.88-.06-1.73-.11-2.62-.16.03-.26.06-.51.09-.75ZM95.35,53.94c.28-2.9.44-6.09.49-9.75.76-.56,6.64-4.23,7.56-4.73,0,.02.01.03.02.04.27,3.15.4,6.35.4,9.51,0,0,0,.02-.01.04-3.05,2.04-5.81,3.79-8.44,5.37h-.04s0-.03,0-.03c0-.15.01-.3.03-.45ZM87.88,58.59s0-.04,0-.05c0-.22.02-.43.03-.65.02-.36.04-.72.04-1.08.06-2.6.06-4.97-.02-7.25,0-.09,0-.18,0-.27h0c.62-.48,1.44-1,1.85-1.19,0,.01,0,.03,0,.04-.02,2.45-.56,8.3-.92,10.03-.31.17-.65.36-.97.53-.03-.03-.02-.05-.02-.11ZM87.79,60.06c.01-.16.03-.31.05-.47v-.08s.34-.18.34-.18c.9-.5,1.79-.98,2.69-1.47,0,.03.01.06.02.1.13,2.24.11,4.41-.08,6.46-.31,3.52-1.1,7.12-2.4,10.98-1.26,3.74-2.69,7.06-4.36,10.12-1.52,2.79-3.45,5.52-5.89,8.36-.04.05-.09.1-.14.14-.01.01-.02.02-.03.03-.54-.42-1.71-1.82-2.06-2.45l.02-.02c.06-.08.13-.15.19-.23,1.04-1.18,2.02-2.4,2.93-3.67,1.2-1.68,2.24-3.52,3.16-5.37.48-.96.92-1.94,1.33-2.94.42-1.02.68-2.18,1.17-3.16,1.04-3.09,1.82-6.3,2.33-9.54.36-2.33.6-4.49.73-6.61ZM69.68,93.94c-.1-.05-.19-.1-.29-.15-.07-.03-.14-.07-.22-.1-.21-.11-.22-.14-.13-.37.04-.09.08-.19.12-.28.03-.06.06-.13.08-.19.19-.43.34-.97-.13-1.43,0-.01,0-.03,0-.04l.04-.08c.09-.19.19-.41.1-.68-.11-.33-.23-.62-.5-.83-.45-.36-1.12-.35-1.62.01-.1.07-.2.15-.3.24-.03.03-.07.06-.11.09-.06-.04-.11-.07-.14-.12-.21-.26-.62-.37-.94-.41-.3-.04-.61-.03-.92-.03-.35,0-.7.02-1.04.02-.14,0-.28,0-.41.02-.25.03-.49.11-.74.17-.28.06-.54.04-.8-.06-.06-.02-.12-.04-.17-.05-.24-.04-.35.06-.45.22l-.04.07c-.08.15-.17.3-.27.43-.14.18-.31.23-.52.15-.06-.03-.11-.04-.17-.05-.03,0-.06-.02-.09-.02-.52-.18-1-.08-1.45.3-.12.1-.22.21-.34.33-.13.13-.29.33-.29.62,0,.04,0,.08-.02.12,0,.04-.01.08-.02.11-.04.31-.21.49-.55.58-.05.01-.09.02-.12.02-.67,0-1.15.39-1.58.73-.44.35-.76.82-.95,1.38l-.04.12c-.02.07-.05.13-.07.2-.05-.04-.1-.07-.14-.11-2.69-2.43-4.88-4.81-6.69-7.29-1.42-1.93-2.64-4.01-3.74-6.38-.02-.03-.03-.06-.05-.09-.04-.08-.07-.13-.08-.19.63-.05,3.48-.05,4.09,0,.01.06.03.13.04.19.11.91.56,1.62,1.33,2.13.06.04.11.07.17.11.14.1.29.2.45.28.19.1.29.24.34.45.03.11.08.22.12.33.02.05.04.1.06.16.34.87.94,1.6,1.78,2.15.6.4,1.28.69,2.01.89.59.16,1.17.29,1.72.39,1.23.23,2.41.65,3.63.91,1.2.26,2.43.41,3.66.43,1.18.02,2.43,0,3.58-.33.16-.05.32-.07.48-.11.13-.04.27-.11.4-.15.68-.21,1.36.11,1.55.72.03.08.06.16.09.23l.05.11c.15.35.39.58.71.68.28.1.49.27.63.53.05.09.11.17.19.27.22.25.54.29.79.11.39-.27.58-.64.56-1.09,0-.21-.1-.4-.28-.56-.1-.09-.2-.17-.33-.27l-.04-.03s.04-.04.05-.05c.04-.04.07-.07.11-.11.09-.09.19-.18.28-.26.2-.18.4-.37.57-.57.42-.5.94-.7,1.6-.63.1.01.2.02.31.04.07.01.13.02.2.03.27.04.4-.08.47-.19.1-.17.07-.35-.09-.49-.01-.02-.02-.03-.04-.05.18-.13.4-.16.63-.08.18.07.37.17.58.3.47.3.95.57,1.52.62-.79,1.49-5.8,6.72-7.65,7.98.02-.07.04-.14.06-.22.04-.14.08-.29.1-.43.13-.7-.08-1.12-.7-1.47ZM50.97,45.2c.01.46.08.54.52.58.21.02.42.04.63.07.29.03.57.06.86.09.03,0,.07.02.11.05,0,0-.01,0-.01,0-.26.03-.51.06-.77.07-2.09.1-4.2-.25-6.29-1.05-.61-.23-1.26-.48-1.92-.82.86-.32,3.14-.87,4.12-.98,1.68-.18,2.6-.22,3.14-.1,0,.05-.02.1-.06.16-.01.03-.03.05-.04.09-.21.56-.3,1.16-.28,1.84ZM47.21,46.12c1.7.5,3.47.69,5.27.6,2.13-.11,4.26-.61,6.51-1.52.46-.19.91-.38,1.38-.59.19-.08.38-.17.58-.25,1.02.98,1.3,1.19,1.83,1.39l.05.02.04-.02c.19-.11.14-.29.12-.39-.11-.43-.23-.86-.34-1.28-.03-.1-.07-.2-.11-.3l-.03-.07c.11-.08.22-.14.34-.17.02.08.03.17.04.26.01.1.02.2.05.3.03.11.06.21.08.32.03.11.05.22.08.32.06.2.14.43.24.64.02.05.04.1.06.16.06.16.12.33.29.45l.08.05.06-.07c.28-.31.33-.49.73-2.3h0c.05,0,.1.03.17.08.04.02.07.05.1.06,1.51.77,2.9,1.36,4.25,1.81,1.92.65,3.84.97,5.7.97h.02c1.72,0,3.44-.32,5.26-.96,1.17-.42,2.18-.86,3.1-1.35.2-.11.37-.12.59-.04.76.27,1.66.58,2.59.79.13.03.27.06.4.09.07.02.15.03.22.05.21,1.12.42,7.19.34,10.1-.09,3.7-.3,6.97-.51,7.87-.04,0-.07.02-.1.02-15.8-.08-31.61-.17-47.41-.25-.01,0-.04,0-.06-.02,0,0-.01,0-.02,0-.09-.46-.13-.94-.16-1.41l-.03-.33c-.47-5.41-.46-10.74.04-15.84h.05c.11-.04.21-.06.33-.09.34-.07.69-.13,1.03-.2.73-.14,1.48-.29,2.22-.45.26-.06.45-.04.67.08,1.24.63,2.53,1.14,3.86,1.53ZM53.62,44.94c.21.14.23.26.1.68-.03-.02-.04-.05-.07-.09,0-.02-.02-.03-.02-.06,0-.02-.02-.05-.03-.07-.07-.16-.07-.31.02-.47ZM54.42,45.81c.04-.11.09-.2.16-.29.02-.03.04-.06.07-.1.03-.04.06-.08.09-.13.03-.04.06-.09.09-.14h0s.06.09.08.14c.08.13.15.26.23.38-.06.02-.12.04-.17.06-.06.02-.12.03-.18.04-.12.02-.24.03-.37.04h0ZM55.41,44.57s.09,0,.12.03c.03.02.06.04.08.08.09.17.1.33.04.49-.07-.07-.12-.15-.16-.22-.02-.05-.04-.1-.06-.15-.01-.05-.02-.1-.03-.15,0-.02,0-.05,0-.08h0ZM56.74,44.06s0,.03,0,.04c0,.03,0,.06,0,.08,0,.07,0,.13,0,.2,0,.1,0,.21.01.31,0,.08.03.14.06.2.03.06.07.11.12.14.05.03.1.06.16.07.03,0,.06.01.09.01.03,0,.06,0,.09,0-.16.05-.32.1-.47.14-.15.04-.3.08-.42.1h0s0-.1.01-.14c0-.06.01-.11.02-.16.01-.11.02-.21.04-.31.03-.15.07-.29.13-.43.04-.09.1-.17.17-.25h0ZM57.44,44.01s.01-.06.01-.08h0s.01,0,.02,0c.04,0,.08,0,.11.01.02,0,.04.01.06.03,0,0,0,0,.01,0v.07s-.01.08-.02.12c-.01.04-.03.07-.05.09-.04.05-.08.08-.14.11,0-.03-.01-.05-.02-.08-.01-.08,0-.17.02-.28ZM57.9,44.89c.11-.07.19-.16.26-.26.07-.1.12-.22.15-.35,0-.02.01-.04.02-.07,0-.02.02-.04.02-.06.02,0,.03,0,.04-.01.04,0,.06,0,.06,0,.02.01.04.05.05.08.02.05.03.11.04.16.01.05.02.11.04.16v.02s0,.02,0,.02c-.06.03-.13.07-.21.11-.08.04-.18.08-.28.12-.07.03-.14.06-.21.09h0ZM54.33,35.41c.01.17-.02.32-.1.49-.19.39-.38.78-.57,1.18l-.17.35s-.06-.01-.1-.02c-.1-.02-.21-.04-.31-.06-1.47-.35-3.05-.42-4.83-.21-1.49.17-2.97.5-4.4.82-.28.06-.56.13-.85.19-.29.06-.57.13-.86.19-.8.18-1.62.36-2.43.52-.5.1-1,.16-1.5.21l-.24.03c-.2.02-.4.05-.6.02,0-.02.02-.04.04-.07l.02-.03c.4-.51.75-1.08,1.02-1.68.24-.49.37-1,.41-1.51.13-1.88-.56-3.46-2.04-4.68-.74-.6-1.63-.94-2.73-1.02-1.01-.07-2.01.09-2.86.26-.57.12-1.06.17-1.51.17h-.11c-.49-.01-.99-.16-1.53-.45-.02,0-.04-.04-.06-.06.09-.11.18-.19.3-.25.92-.46,1.79-1.01,2.68-1.69.04.06.09.12.13.18.24.29.54.37.86.24.19-.08.39-.17.57-.28.47-.28.93-.56,1.39-.84l.46-.28c.07-.04.14-.08.21-.11l.08-.04c.12.18.28.39.58.39.32,0,.6-.09.84-.27.41-.32.83-.61,1.34-.95.06-.04.15-.07.24-.09h.06c.06-.03.13-.04.21-.04h.09c.98-.12,1.83-.49,2.54-1.12.02-.02.05-.05.1-.08.31.27.37.3.77.39,0,.09,0,.19,0,.28v.22c.01.52.2.91.56,1.2.29.24.65.34,1.05.3.15-.01.28-.09.42-.16l.05-.03s.03-.02.05-.03c.04.02.08.05.12.07.05.03.1.06.15.09.02.02.05.03.07.04l.04.02c.5.26.99-.04,1.33-.4.34-.37.54-.9,1.15-.75.58.14,1.2.16,1.9.05,0,0,.28-.05.28-.05h.03c.06-.02.11-.03.17-.04h.04s.07.15.07.15c0,.01,0,.02.01.03.14.39.41.59.61.93.31.52.42,1.16,1.22,1,.09-.02.18-.04.28-.07.04-.01.08-.02.12-.03,0,0,.41.72.47.79.23.27.5.42.84.51.05.01.11.03.17.05l.05.12c.18.47.56,1.48,1.24,1.03.13-.09.26-.21.36-.34.02-.04.05-.07.08-.1-.14.2-.19.59-.24.83-.07.3-.11.6-.14.91-.06.67-.14,1.42.14,2.05.09.21.34.5.3.74-.02.12-.1.23-.12.36-.02.15-.03.3-.02.45ZM54.33,28.54c-.08.42-.28.86-.59,1.29,0,.02-.04.03-.06.05-.09-.11-.14-.24-.19-.38-.02-.07-.05-.14-.08-.21-.09-.2-.1-.41-.04-.67.07-.3.08-.6.02-.85-.11-.51-.01-.99.16-1.55.14-.44.38-.88.74-1.34,0,0,0,0,0,0,.02.04.03.08.04.11.22,1.25.22,2.42,0,3.56ZM53.55,24.25s-.03.05-.05.07c-.04.07-.07.12-.12.15-.56-1.66-.13-3.52,1.09-4.7v.22c.03.19.04.39.05.59.02,1.55-.29,2.71-.97,3.67ZM54.26,19.01h0c-.19.25-.43.46-.73.65-.1.07-.2.13-.31.18-.02-.21-.02-.41-.02-.6,0-.29.03-.57.09-.83.03-.15.07-.31.12-.47.05-.18.13-.36.22-.55.03-.07.07-.14.11-.19.31-.37.71-.65,1.17-.82.07-.03.13-.04.17-.04.03,0,.05,0,.08.02.06.03.11.11.16.24.05.14.05.27,0,.43-.21.7-.57,1.37-1.06,1.98ZM61.12,22.08s.04.09.06.15c-.85-.37-1.43-.78-1.85-1.32-.44-.57-.77-1.24-1.03-2.08.09.08.18.16.27.24.14.13.29.26.45.38.89.7,1.59,1.58,2.1,2.62ZM59.44,17.78c.06,0,.12-.02.18-.03.11-.02.22-.03.33-.05.4.24.57.38.79.69-.33.13-.68.18-1.08.14-.05-.16-.09-.31-.14-.47-.03-.09-.06-.19-.08-.28ZM63.94,39.94c-.6.92-.96,1.84-1.09,2.8-.07.03-.14.07-.22.11-.13-.07-.24-.17-.36-.28-.01-.01-.03-.03-.04-.04,0,0,0-.01.01-.02.04-.05.07-.09.11-.13.39-.36.65-.78.82-1.29v-.03c.06-.14.1-.25.22-.33.12-.07.18-.22.23-.36.14-.42.28-.85.42-1.27,0,.12,0,.25.01.37.02.17-.02.31-.11.46ZM64.09,40.6c.23,1.56.12,3.07-.33,4.49,0,0,0,.02,0,.02-.73-1.43-.61-3.06.33-4.52ZM59.41,40.78l.16.17c.16.17.33.36.52.57-.04.64.04,1.22.22,1.74.06.17.14.34.23.49,0,0,0,0,0,.01,0,0,0,0,0,.01-.03.01-.06.02-.09.04-.03.01-.06.03-.09.04-.01-.02-.02-.04-.03-.06,0-.02-.01-.04-.02-.06-.13-.58-.26-1.1-.41-1.59-.15-.49-.3-.94-.48-1.37h0ZM55.06,28.86c-.16.13-.27.31-.35.49,0-.05.01-.1.02-.15.07-.71.14-1.43.2-2.14,0-.12.01-.25.01-.39.09.18.12.33.08.51-.1.52-.09,1.07.03,1.68ZM55.06,23.21c.9.74,1.56,2.48,1.16,4.49-1.16-1.13-1.64-3-1.16-4.49ZM54.98,19.59h0c0-.15.07-.31.12-.46l.02-.05c.04-.1.1-.2.16-.28.11-.15.23-.3.36-.46h0c.04.16.09.33.13.49.16.58.33,1.18.41,1.78.12.86.07,1.56-.18,2.25-.04-.03-.07-.06-.08-.08-.37-.55-.64-1.1-.82-1.66-.14-.48-.15-.96-.12-1.53ZM56.1,18.16c.68.46,1.21.97,1.59,1.54.5.74.69,1.76.51,2.63-.85-.71-1.94-2.88-2.1-4.17ZM58.45,28.93c.21-.08.34-.23.51-.38.07.04.12.14.16.21.05.08.09.16.14.24.01.02.02.04.02.07-.01.04-.06.04-.1.03-.13-.04-.17-.13-.24-.23-.51.5-.77.53-1.14.08.22.05.45.05.66-.03ZM60.62,23.35s0,.01,0,.02h0c0,.32-.04.64-.09.94-.63-.47-1.07-.93-1.35-1.4-.3-.5-.42-1.01-.35-1.4.02-.1.05-.16.09-.18,0,0,.01,0,.02,0,.04,0,.13.03.27.13l.04.03h0v.02h.02c.31.32.68.59,1.11.83.07.1.12.22.16.38.04.15.06.32.07.53h0s0,.03,0,.04c0,.03,0,.05,0,.07ZM61.79,32.66c.05-.13.08-.27.14-.39,0-.01.01-.02.02-.03.01,0,.03,0,.05,0,.01,0,.02,0,.04,0,.02,0,.03.03.04.05.04.12.02.26,0,.38-.08.39-.39.71-.79.75-.14.02-.29,0-.42-.06-.13-.05-.25-.14-.34-.25-.08-.09-.2-.23-.19-.36,0,0,0-.02.02-.03.04-.03.1.02.13.04.05.04.1.08.14.11.27.2.65.41.95.15.11-.09.18-.22.23-.35ZM61.61,26.41c.14.08.22.12.28.16.19.14.34.32.43.54.47.98.71,2.02.6,3.12,0,.05-.02.11-.04.19-.34-.09-.58-.29-.77-.56-.23-.32-.36-.69-.44-1.08-.17-.76-.12-1.52-.07-2.37ZM59.91,27.83c-.36,0-.44-.07-.59-.57.11.08.15.11.19.14.21.21.44.27.72.13.1-.05.21-.07.27.06.05.1-.05.2-.22.21-.12.01-.25.02-.37.02ZM59.99,29.75c-.06.03-.13.06-.19.05-.19-.02-.36-.09-.49-.3.24.03.46.05.67.08.02,0,.05.05.05.08,0,.03-.01.07-.04.08ZM57.9,30.37s0-.02.03-.03c.03,0,.06.02.07.05.01.03.01.07.02.1,0,.04.02.07.04.1.04.07.09.13.17.15.05.01.1,0,.15-.01.02,0,.03-.01.05-.02.05-.03.09-.07.13-.11.01-.02.03-.04.05-.06.02-.02.04-.03.06-.04.07,0,.1.12.13.17.02.05.04.11.06.16.04.1.08.28.21.29.03,0,.07-.01.09-.03.03-.02.04-.06.06-.09.07-.1.13-.22.21-.32.04-.06.09-.12.16-.13.06,0,.07.07.07.11.01.16-.37.6-.49.72-.09.11-.28.1-.37-.02-.1-.12-.17-.26-.23-.41,0-.01-.01-.02-.02-.03-.01,0-.02,0-.04,0-.01,0-.02,0-.03.01-.1.05-.21.01-.3-.02-.04-.01-.07-.03-.11-.05-.03-.02-.04-.04-.07-.07-.1-.12-.16-.27-.1-.43ZM58.53,32.4s.04-.14.09-.14c0,0,.01,0,.02,0,.09.04.09.13.11.21.02.09.05.19.08.28.04.13.09.27.27.29.14.01.24-.07.32-.28.02-.06.04-.14.07-.19.02-.03.09-.05.13-.04.04,0,.09.07.09.1-.01.26-.32.64-.56.71-.14.04-.28.02-.4-.09-.18-.16-.27-.36-.26-.6,0-.09,0-.17.03-.25ZM59.65,33.69s.08-.1.11-.09c.24.03.2.39.23.56.03.15.08.32.2.43.14.11.29.02.39-.09.08-.09.12-.21.23-.26.04-.02.1-.02.13,0,.01.01.02.03.03.04.1.19.17.41.29.59.14.22.32.23.53.05.04-.04.08-.08.13-.11.04-.03.08-.02.13-.03.11-.01.13.13.1.22-.16.47-.69.61-1.06.27-.12-.1-.2-.24-.31-.36-.14.04-.27.08-.4.11-.21.04-.39-.03-.51-.2-.25-.34-.31-.73-.23-1.13ZM61.89,38.63c-.05.58-.76.89-1.23.56-.26-.19-.34-.36-.34-.85.2.21.31.36.45.49.23.22.47.21.67-.05.07-.08.1-.19.17-.26.04-.04.13-.06.19-.05.05.02.1.1.1.15ZM60.54,41.88h0s0-.02,0-.02c.94.67,1.79,2.25,1.89,3.21-.53-.35-.97-.77-1.31-1.24-.41-.56-.6-1.21-.59-1.95ZM63.95,33.24c-.04.27-.09.54-.18.77-.61-1.09-.78-2.92-.44-3.98.47.63.69,1.62.68,2.56-.02.2-.04.42-.05.65ZM63.74,27.41c-.1-.07-.2-.14-.3-.21-.25-.17-.51-.34-.75-.54-.55-.44-.96-1.02-1.23-1.73h0c-.17-.45-.27-.84-.34-1.29.05.04.1.07.13.1l.22.2c.35.32.71.66,1.04,1,.28.29.55.64.8,1.04.33.49.5.98.5,1.45-.02,0-.04,0-.08-.03ZM59.12,18.46c-.09-.02-.18-.03-.27-.04-.35-.06-.72-.11-1.06-.22-.96-.3-1.6-.88-1.96-1.76-.01-.04-.02-.08-.04-.12,1.15.11,2.14.57,3.02,1.4.2.19.31.44.33.74,0,0-.02,0-.02.01ZM55.93,15.59s-.02,0-.03,0c-.06,0-.12.02-.17,0-.81-.1-1.49.12-2.04.65,0,0-.01.01-.02.01-.01-.21.06-.38.13-.53.07-.14.14-.26.23-.37.18-.23.42-.43.72-.6.17-.09.35-.12.52-.12.16,0,.31.03.46.06.16.04.26.15.3.35.03.16.02.26-.09.54ZM54.61,31.73c.06-.69.21-1.43.59-2.03l.12.3c.09.24.18.47.27.73.04.11.09.23.08.33-.03.55-.06.92-.21,1.45-.15.52-.54.88-.76,1.37-.2-.79-.15-1.34-.08-2.15ZM55.46,27.52l.12.15c.33.4.68.82.93,1.28.17.3.3.59.4.86.12.34.2.64.24.92.05.37.07.76.09,1.13l.02.28s0,.05,0,.08c-1.03-.65-2.03-3.27-1.79-4.7ZM55.92,34.72s.05.04.05.06c.21.45.47.86.72,1.25.22.33.28.77.34,1.12.09.6.09,1.24,0,2.01,0,0,0,0,0,.01-1.03-1.17-1.46-2.88-1.11-4.45ZM56.98,35.55h0c-.1-.21-.22-.44-.37-.64-.2-.26-.31-.58-.36-.99-.04-.36-.05-.74-.02-1.18,1.17.73,2.16,2.46,2.15,3.8h-.02c-.33-.1-.64-.25-.91-.45-.23-.18-.37-.34-.47-.54ZM57.56,38.12c.08.16.16.32.24.48.05.09.04.18-.01.29,0,0,0,0,0,0-.04,0-.08-.01-.13-.02-.04-.01-.08-.03-.13-.05.01-.23.02-.46.04-.69ZM57.68,37.18c.64.36,1.16.78,1.6,1.26.6.66.91,1.47.97,2.47-.87-.51-2.16-2.39-2.57-3.73ZM58.21,39.31c.09.11.16.23.22.36l.02.03c.55,1.1.98,2.31,1.28,3.58.01.04.02.08.02.13-.18-.12-.31-.28-.44-.43l-.09-.1c-.55-.62-.87-1.2-1-1.82-.13-.6-.14-1.18-.01-1.76ZM65,40.96c-.14-.32-.33-.6-.43-.93-.06-.21-.06-.39-.02-.57.03-.14.09-.28.17-.43.4.44.69,1.15.85,1.88-.04.27-.09.52-.19.72-.02.03-.34-.6-.37-.67ZM65.05,42c-.06.06-.12.12-.17.17-.05.06-.11.11-.16.16-.02-.04-.04-.07-.06-.11,0-.04,0-.07,0-.11,0-.07-.01-.15-.01-.23,0-.19,0-.39,0-.55.1.16.2.33.31.5l.1.17ZM65.31,36.56s-.02.09-.02.13c-.01.09-.02.17-.06.25-.69-1.25-.95-2.59-.8-4.08.01.01.02.03.04.04.85,1.07,1.14,2.3.84,3.66ZM74.03,43.22c-.01-.08-.03-.16-.05-.25,0-.02,0-.03-.01-.05.06-.02.12-.03.18-.03,1.1-.12,2.28-.12,3.59-.01,1.44.12,2.9.4,4.45.84.1.02.19.06.32.1,0,0,0,0-.01,0-.06.03-.1.06-.14.08-1.69.81-3.24,1.36-4.74,1.68-1.43.31-2.94.38-4.6.2-1.63-.17-3.3-.61-5.1-1.34-.07-.03-.14-.06-.22-.1,0,0,.01,0,.01,0,1.63-.54,3.15-.93,4.64-1.21.03.04.05.07.08.11.05.07.1.14.16.2.18.22.39.37.65.43h0c.22.06.43.01.59-.11.15-.13.22-.33.2-.55ZM39.3,63.59c.11-.05.22-.04.34-.04.05,0,.09,0,.13,0h1.31c1.74,0,3.49.01,5.23.02l39.78.2c.06,0,.13,0,.19,0,.16,0,.31,0,.45.03.05.1.03.2.01.32,0,.03,0,.06-.01.09-.11.82-.21,1.56-.32,2.32-.48,3.07-1.21,6.09-2.15,8.97-.53,1.6-1.06,3-1.62,4.3-.05.13-.11.25-.16.36h-.03s-38.49.07-38.49.07c-.09,0-.18,0-.27-.01h-.03s-.03,0-.06-.02h-.01s-.04-.1-.06-.14c-.05-.11-.11-.23-.16-.34-1.03-2.43-1.87-5.01-2.59-7.89-.58-2.36-1.05-4.88-1.42-7.72-.02-.18-.04-.35-.05-.52h0ZM71.11,89.94c.07.06.14.11.21.16.04.03.08.06.13.1.25.21.27.27.1.55l-.05.07-.04.02s-.06-.04-.1-.12c-.01-.02-.02-.04-.03-.06-.22-.36-.5-.58-.84-.69-.22-.07-.36-.22-.45-.46-.04-.1-.08-.2-.12-.29-.38-1-1.53-1.33-2.49-1.05-.33.09-.62.29-.94.43-.85.39-1.83.28-2.73.23-.97-.05-1.95-.12-2.91-.26-1.26-.18-2.43-.63-3.66-.95-.47-.13-.95-.22-1.42-.31-.24-.05-.47-.09-.71-.14-.67-.14-1.26-.34-1.79-.59-.32-.16-.6-.31-.85-.46-.79-.5-1.29-1.22-1.48-2.16-.02-.07-.03-.13-.04-.18-.02-.3-.22-.45-.39-.55-.31-.19-.68-.43-1.02-.69-.48-.37-.74-.89-.78-1.59.02,0,.05-.02.06-.02l33.25-.04s.06,0,.1.01c0,.05-.01.08-.03.12-1.04,2.26-2.25,4.37-3.6,6.28l-.06.07c-.45.09-.88.02-1.27-.21l-.22-.13c-.23-.14-.47-.29-.72-.41-.45-.23-.92-.23-1.4,0-.23.12-.46.26-.53.56-.15.01-.29.03-.43.04l-.22.02c-.47.05-.88.24-1.2.58-.09.09-.18.18-.27.28-.3.31-.6.63-.94.89-.07.05-.14.12-.2.21-.17.25-.15.52.08.74ZM93.39,39.78v.07c-.17.81-.36,1.45-.63,2.03-.15.32-.3.61-.48.89-.55.87-1.36,1.43-2.42,1.64-.72.15-1.5.17-2.44.08-1.19-.12-2.32-.51-3.41-.9l-.11-.04c-1.74-.6-3.39-1.01-5.04-1.24-.95-.13-1.91-.19-2.85-.19-1.4,0-2.79.14-4.14.42-1.63.34-3.21.77-4.7,1.29-.31.11-.54.09-.79-.05-.41-.23-.85-.4-1.23-.68-.05-.03-.1-.08-.08-.14,0-.03.03-.05.05-.07.78-.78,1.61-1.51,2.5-2.16,1.43-1.06,3.09-1.77,4.95-2.11,1.88-.35,3.83-.47,5.81-.35,2.24.13,4.44.45,6.11.72l.77.13c1.36.22,2.76.45,4.13.71.66.13,1.33.12,2.1-.02.7-.13,1.32-.43,1.84-.9l.25-.21c-.03.4-.09.74-.15,1.08ZM68.66,29.53c-.01-.13-.03-.26-.06-.41.05-.03.1-.06.16-.08.18-.09.37-.19.55-.31.05-.04.27-.24.34-.19,0,0,.01.02.01.03.06.27.04.47.21.72.08.11.17.22.29.27.1.04.21.04.32.03.33-.04.63-.2.89-.4.24-.19.51-.39.68-.64.04-.06.08-.12.13-.19.02-.02.03-.04.05-.06.03.19.06.43.14.61.05.12.14.22.27.24.11.02.21-.02.31-.06.1-.04.21-.13.32-.15.12-.03.21,0,.32-.09.1-.07.16-.17.22-.28.16-.26.31-.54.38-.84.01-.04.2.28.2.3.05.12.13.24.26.3.11.05.25.02.36-.04.1-.06.19-.16.27-.25.27-.32.55-.64.82-.95.13-.15.27-.32.34-.5.07-.19.02-.39.1-.57.2-.02.39-.06.57-.14.46.09,1.07.39,1.38.25.03-.01.05-.04.08-.05.15,0,.3,0,.43-.02.27-.05.51,0,.8.16.02.05.05.11.07.17.06.14.11.27.18.4.24.42.68.62,1.17.52.24-.04.4-.2.56-.36.11.06.22.11.34.16.52.22.91.09,1.19-.39.18-.3.27-.65.3-1.12,0-.13.01-.26.02-.39v-.08c.13-.05.25-.11.38-.16.09-.04.17-.07.26-.11.02.01.05.03.07.04.05.03.11.06.16.1.73.55,1.59.84,2.57.86.21,0,.34.06.48.18.46.42.84.69,1.24.89.27.13.59.27.93.36.5.13.72.03.96-.41.1.06.19.13.28.19.76.55,1.64,1.03,2.6,1.41l.1.04c.2.07.35.12.46.06.1-.05.15-.16.21-.33.02.02.05.03.07.05.08.05.16.1.23.16.79.55,1.42.93,2.05,1.22.24.12.5.22.78.32.17.06.36.09.53.09.01,0,.03,0,.04,0,.33,0,.51-.17.55-.51,0-.05,0-.1,0-.16.19.06.35.16.51.25.07.04.15.09.22.13,0,.04-.02.06-.06.11-.01.01-.03.03-.04.04-.3.35-.62.64-.97.88-.53.36-1.12.47-1.74.31-.38-.1-.8-.21-1.21-.31-.72-.17-1.59-.34-2.48-.35h-.02c-1.17,0-2.19.39-3.03,1.15-1.12,1.01-1.85,2.3-2.18,3.82-.14.64-.06,1.29.23,1.96.21.48.51.96.92,1.45.06.07.12.14.17.21-.09-.01-.16-.01-.26-.04l-.62-.11c-.46-.08-.92-.16-1.38-.24-2.22-.37-4.39-.71-6.62-.94-1.03-.11-2.07-.16-3.16-.16-.45,0-.9,0-1.36.03-.04,0-.08,0-.13,0-.12,0-.23.02-.35-.01,0-.01,0-.02,0-.04,0-.07,0-.13.02-.19.01-.05.03-.11.05-.16.02-.08.05-.16.07-.23.04-.16,0-.32-.11-.43-.11-.11-.27-.15-.43-.13-.39.07-.71.28-.91.6-.08.13-.14.28-.19.42-.03.07-.05.13-.08.2-.02.04-.03.08-.05.12v.02c-.21.1-.35.06-.46-.13-.12-.19-.27-.38-.45-.58-.15-.18-.31-.2-.41-.2-.1,0-.25.06-.39.27-.17.27-.24.57-.21.94,0,.06,0,.07,0,.08-.02.01-.09.03-.16.04l-.02-.04c-.04-.08-.08-.16-.13-.24l-.06-.1c-.07-.12-.14-.24-.23-.34-.11-.12-.24-.18-.38-.18h-.02c-.15,0-.29.08-.39.22-.09.11-.15.23-.23.36-.24-.37-.57-.48-1-.33-.11-.27-.16-.57-.13-.91.02-.27.06-.56.11-.86.11-.71.07-1.37-.13-2.01-.12-.39-.3-.71-.57-1-.11-.11-.21-.24-.31-.36-.04-.05-.09-.11-.14-.16.25-.39.38-.79.39-1.2,0-.04.04-.1.08-.15l.04-.05c.04-.05.07-.11.12-.16.06-.08.13-.17.18-.26.15-.25.2-.54.16-.85ZM72.45,27.06c-.24-.03-.43,0-.54.25-.05.11-.1.21-.15.32-.05.11-.1.22-.15.32-.23.45-.61.72-1.12.81h-.08s-.01,0-.02,0l-.07-.22c-.05-.17-.11-.34-.16-.53-.03-.08-.05-.17-.07-.26-.02-.09-.05-.19-.08-.28-.01-.04-.03-.08-.04-.11.15-.09.29-.2.41-.33.08.2.39.23.57.11.19-.12.28-.34.36-.54.3.38,1.04.21,1.14-.26.25.21.66.2.9-.02.08-.08.15-.18.26-.2.14-.03.27.09.39.17.39.24.99-.07,1.03-.52.14.11.32.14.5.12.01.07.01.14.02.21-.1.22-.25.41-.45.61-.13.12-.25.26-.36.4-.03.04-.06.07-.08.1-.02-.03-.03-.07-.04-.12-.01-.04-.02-.1-.04-.14l-.03-.06c-.04-.08-.08-.18-.15-.24-.1-.08-.25-.11-.36-.1-.16.01-.26.14-.28.32,0,.08,0,.16,0,.24s0,.15,0,.22v.02c-.02.23-.1.43-.23.58,0,0,0,0,0,0,0,0,0,0,0,0-.04.05-.09.09-.16.14-.09.06-.18.11-.29.15-.03,0-.06.01-.1.02v-.02s0,0,0,0h0c-.04-.28-.07-.54-.1-.8v-.06c-.05-.19-.15-.28-.31-.31-.03-.01-.05-.01-.08-.01ZM72.46,27.17h0ZM74.37,37.33c0,.1-.02.21-.04.33-.05,0-.1,0-.14.01.03-.1.05-.17.07-.22.02-.05.06-.08.11-.12h0ZM70.63,38.39s-.08.05-.11.06c-.03.01-.07.02-.1.02.02-.13.05-.24.1-.34.06.06.09.14.11.25ZM68.13,35.75c0,.17-.11.22-.26.24-.08-.11-.09-.23-.01-.33.03-.04.12-.07.17-.06.05.01.1.1.1.15ZM67.71,37.15c.09.04.17.1.24.2.02.03.04.07.06.11.11.23.22.45.33.68l.15.32.05.14.02.04c.09.1.19.14.25.14.07,0,.15-.03.21-.08.04-.03.07-.06.08-.1.04-.07.05-.14.06-.21,0-.05.02-.09.03-.14.01-.03.04-.06.05-.07,0,0,0,0,.02.04,0,.01,0,.02.01.04.02.12.02.23,0,.35-.02.12-.05.24-.09.37-.06.03-.13.07-.19.1-.03.02-.05.03-.08.04-.02,0-.05.01-.08.01-.02,0-.06,0-.09-.01-.03,0-.06-.02-.09-.04-.42-.21-.8-.49-1.12-.83-.14-.14-.22-.31-.24-.51-.01-.08-.01-.17,0-.26,0-.05,0-.1.02-.14,0-.04.02-.08.04-.11.02-.03.05-.06.08-.08.04-.02.09-.03.13-.03.05,0,.1.01.15.03ZM67.23,34.53c-.13.13-.28.21-.48.17-.16-.04-.27-.13-.31-.29.61-.16.67-.24.72-.87,0-.05,0-.1,0-.15.02-.12.1-.21.2-.2.12,0,.19.09.21.2.05.43-.02.83-.34,1.15ZM66.99,38.72l1.09.85-.22.15c-.28.2-.57.39-.84.6-.27.2-.53.4-.79.61-.09.07-.18.14-.26.21,0,0,0-.02,0-.03,0-.01,0-.03,0-.05,0-.1.01-.21.02-.31,0-.15.02-.3.02-.45.01-.64-.06-1.16-.24-1.63-.01-.05-.03-.09-.04-.15,0,0,0,0,0-.02.4.17.81.24,1.25.22ZM93.53,37.62c-.31.53-.93,1.07-1.53,1.32-.52.21-1.09.3-1.73.3-.12,0-.2-.02-.26-.08-.72-.68-1.18-1.27-1.48-1.9-.37-.77-.35-.95.12-1.63.19-.26.41-.51.69-.81.22-.23.49-.39.83-.5,1.29.71,2.69,1.66,3.36,3.3ZM101.25,32.27c.42,0,.83-.01,1.25-.02h.05c.08,0,.15,0,.23.01-.01.02-.03.04-.04.05-.76.85-1.54,1.5-2.39,1.97-.77.43-1.62.66-2.52.66h-.04c-1.13,0-2.2-.24-3.09-.48-.38-.1-.76-.22-1.14-.33-.31-.1-.63-.19-.95-.28-.56-.16-1.07-.25-1.54-.29-.08,0-.17-.01-.25-.01-.77,0-1.46.29-2.03.86-.08.08-.16.16-.23.24.52-1.34,1.22-2.27,2.18-2.93.53-.37,1.13-.57,1.79-.6.76-.04,1.54.05,2.48.27.42.1.84.21,1.25.32.95.28,1.85.09,2.67-.57.14-.11.27-.23.4-.35.06-.06.12-.11.18-.17.08-.07.15-.15.22-.21v.08c0,.19,0,.37,0,.56,0,.26,0,.51.01.77,0,.33.13.45.46.45h.02c.35,0,.69,0,1.04-.01ZM100.4,29.61c-.08-.28-.31-.33-.49-.38-.07-.02-.14-.03-.2-.06-.37-.18-.73-.37-1.08-.59-.16-.1-.31-.21-.46-.32-.08-.06-.15-.11-.22-.17-.07-.06-.16-.1-.19-.2-.01-.06,0-.11-.01-.17-.01-.07-.05-.13-.08-.2-.04-.09-.09-.17-.13-.26.01.02.02.03.04.05,0,.01,0,.02.01.04.6.57,1.36.99,2.18,1.18.17.04.35.07.51.02.08.09.17.18.25.27.28.29.44.58.49.9-.21.05-.41-.02-.62-.1ZM69.08,21.18v-.03c-.04-.09-.06-.16-.08-.22-.02-.12-.03-.25-.02-.4-.02-.26.03-.52.15-.79l.12-.28-.27.14c-.08.04-.17.08-.26.12-.2-.21-.39-.43-.58-.63,0,0-.17-.19-.15-.19.14,0,.28,0,.42-.03.62-.1,1.04-.43,1.24-.98.08-.24.14-.49.17-.72.07-.62.01-1.21-.18-1.76-.16-.46-.33-.91-.53-1.44-.33-.84-.53-1.55-.6-2.24-.07-.6-.02-1.15.14-1.68.18-.58.51-1.04,1.02-1.42.31-.22.68-.42,1.17-.6,1.2-.46,2.5-.64,3.98-.57,2.82.16,5.54.7,8.07,1.61,1.78.64,3.44,1.5,4.93,2.53,1.33.92,2.77,1.91,4.24,2.86,3.19,2.05,6.42,4.43,9.62,7.08,2.14,1.76,4.42,3.66,6.99,5.82.17.09.32.19.46.29.23.17.42.37.56.59l.02.02c.99.87,1.93,1.77,2.78,2.66.36.38.74.79,1.08,1.22.24.31.45.65.66.98l.13.2c.04.07.07.15.1.25-.06.01-.13-.01-.22-.04-.03-.01-.06-.02-.09-.03-.39-.13-.72-.32-1.13-.65-.03-.39-.05-.42-.41-.8-.45-.48-.9-.95-1.36-1.42-.17-.17-.33-.34-.5-.5-.07-.07-.13-.13-.2-.2-.07-.07-.15-.15-.25-.13-.1.02-.16.15-.15.24,0,.13.1.24.19.33.23.25.49.47.69.74.1.14.18.28.24.45.06.16.18.25.27.39-.59-.18-1.04-.46-1.39-.85-.23-.25-.5-.46-.77-.67-.14-.11-.28-.23-.42-.33-.1-.08-.19-.19-.31-.25-.05-.02-.11-.04-.16,0-.05.04-.04.13-.01.19.12.33.34.62.61.85.27.22.45.53.64.82.03.05.03.1,0,.14-.01.02-.05.06-.11.06-.15,0-.26-.04-.34-.08-.25-.15-.49-.3-.69-.49-.3-.24-.57-.53-.87-.77-.31-.24-.64-.46-.99-.66-.1-.06-.2-.11-.31-.12-.04,0-.1,0-.12.04-.01.02,0,.05,0,.08.03.16.09.3.16.44.13.27.23.52.25.79,0,.03,0,.06,0,.1-.04,0-.07-.01-.1-.03-.14-.08-.27-.16-.4-.25-.08-.05-.16-.11-.25-.16-.65-.4-1.18-.72-1.68-1.01-.16-.1-.33-.16-.49-.22-.19-.07-.32,0-.4.09-.1.12-.11.27-.01.4.04.06.08.11.12.17.05.07.1.14.15.22.05.08.1.15.11.25-.07-.03-.13-.05-.18-.08-.69-.39-1.31-.88-1.82-1.31-.1-.08-.17-.2-.21-.28-.12-.24-.28-.44-.43-.61-.11-.12-.21-.24-.32-.35-.11-.12-.09-.2-.11-.36-.03-.2-.12-.39-.21-.57-.03-.01-.05-.03-.08-.04,0,0-.01-.02-.01-.03.05.13.08.26.05.39-.03.13-.18.16-.3.19-.95.22-2-.04-2.75-.65.01.02.02.04.04.06-.01-.01-.02-.03-.04-.05.02.02.04.05.05.07.03.04.06.09.09.13.07.15.1.32.06.48-.04.17-.4.06-.51.02-.89-.37-1.75-.84-2.53-1.4.37.79.94,1.47,1.65,1.98.24.17.5.32.79.36.13.01.27,0,.4-.05l.05.06c.19.23.39.47.48.76-.02.02-.03.01-.08,0l-.24-.1c-.25-.1-.51-.2-.75-.31-.97-.49-1.9-1.11-2.74-1.8-.06-.05-.14-.11-.22-.09-.2.04-.24.47-.27.62v.03s-.06-.02-.08-.03c-.1-.04-.2-.08-.29-.12-.85-.39-1.66-.89-2.46-1.55l-.09-.07c-.08-.07-.16-.13-.25-.19-.08-.05-.19-.08-.3-.08-.12,0-.23.06-.3.16-.07.1-.09.22-.05.34.02.06.06.12.09.18.05.08.08.15.09.23-.04,0-.08,0-.12,0-.3-.06-.59-.19-.86-.37-.31-.21-.6-.45-.89-.68l-.17-.13c-.07-.05-.13-.12-.19-.18l-.06-.06c-.16-.16-.34-.19-.5-.1-.14.09-.29.07-.46.05h-.03c-.67-.07-1.3-.34-1.87-.8-.08-.06-.15-.14-.22-.22-.04-.04-.08-.09-.12-.13l-.03-.04h-.05c-.2.02-.33.14-.45.24-.11.1-.2.18-.34.19-.04-.05-.1-.11-.15-.16-.13-.15-.29-.18-.4-.1-.03.02-.05.04-.05.05-.08.06-.14.17-.16.26-.02.08,0,.17.02.24l.02.06c.04.14.06.29.08.46,0,.13,0,.28-.01.45,0,0-.01.05,0,.06,0,.08-.02.17-.03.25-.02.12-.07.24-.15.4-.04.08-.09.14-.15.15-.06.02-.13,0-.23-.04-.02-.01-.05-.02-.07-.04l-.04-.02c-.05-.04-.11-.08-.16-.12l-.1-.07c-.12-.08-.27-.16-.43-.12-.15.04-.24.18-.31.32v.05c-.03.06-.05.1-.09.13-.05.04-.13.06-.22.05-.1-.02-.19-.07-.24-.15-.1-.14-.15-.27-.16-.37-.04-.34-.26-.48-.48-.58-.02,0-.04-.02-.06-.03-.17-.08-.33-.13-.49-.15-.21-.03-.4-.03-.59.02,0-.28-.1-.57-.27-.76.02-.03.04-.04.04-.04.23.03.48.06.7-.03.22-.08.4-.31.35-.54-.03-.11-.1-.26,0-.33.04-.02.1-.02.14-.01.52.04.95-.46,1.01-.97.06-.51-.15-1-.38-1.46-.28-.57-.61-1.15-1.13-1.52.47.81.74,1.73.78,2.66.01.23,0,.48-.14.67-.23.32-.81.27-.99-.08-.03.3-.17.59-.41.76-.07.05-.16.08-.24.1-.09-.86-.71-1.85-.99-2.66.08-.24-.01-.49-.12-.72-.06-.13-.14-.26-.22-.38.1.08.22.14.35.14.3,0,.5-.3.55-.57.06-.28-.04-.58-.23-.8.29.33.75.53,1.17.4.49-.15.76-.83.42-1.21.41.11.89-.09,1.09-.45.2-.37.12-.87-.2-1.15.44.01.89.02,1.33.04.22,0,.52-.06.53-.27.37.23.75.46,1.18.48.07,0,.15,0,.23-.02.22.45.55.84.83,1.26.34.51.61,1.15.4,1.74-.29-.04-.5-.28-.68-.51-.54-.68-1.06-1.39-1.74-1.94.81.95,1.25,2.2,1.21,3.45-.16.08-.33-.06-.43-.19-.76-.91-1.09-2.2-2.1-2.82.42.61.81,1.25,1.17,1.9.39.71.74,1.62.27,2.29-.5-1.05-1.13-2.03-1.87-2.93.28.47.55.93.83,1.4.24.4.5.83.55,1.3.06.49-.27.71-.33,1.12-.18,1.19,1.47-.42,1.01-.57.31.1.66-.11.82-.4.16-.29.16-.63.12-.95.25.15.59.13.81-.04.23-.17.33-.49.24-.76.09.25.44.33.68.21.23-.13.35-.4.35-.67,0-.26-.1-.51-.22-.75-.41-.84-1.01-1.59-1.73-2.2.28-.11.5-.34.5-.63.29.18.6.36.94.39.34.03.73-.14.82-.47.1-.33-.14-.52-.24-.79.32-.05.54.37.86.38.06,0,.12-.01.15-.06.02-.03.02-.06.02-.09-.01-.51-.39-.92-.8-1.17-.42-.25-.9-.41-1.37-.57-.26-.09-.51-.2-.76-.33-.29-.15-.57-.32-.87-.45,0,.14.28.31.37.39.17.14.36.27.55.38.43.25.85.53,1.22.87.23.22.51.43.43.76-.07.27-.31.51-.6.51-.42.05-.81-.18-1.16-.39.13.2-.05.49-.28.56-.23.07-.48,0-.71-.08-.34-.11-.67-.22-1-.33.11.11.13.36-.01.48-.2.16-.49.12-.74.07-.71-.16-1.4-.41-2.06-.72.25.37.65.64.88,1.02.23.39.19,1-.24,1.15-.43.14-.82-.28-1.26-.39.19.2.39.41.49.67.1.26.06.59-.15.76-.22.18-.54.15-.81.05-.27-.09-.46-.32-.74-.37.27.16.5.62.35.95-.15.33-.59.3-.9.16.38.23.57.83.27,1.2-.3.36-.95.34-1.24-.03h0c.15.34.32.69.61.91h0s0,0,0,0c.04.04.09.07.14.1.3.17.74.14.97-.09.06.16.11.32.16.48.11.85.18,1.72.12,2.57,0,0,0,.02,0,.02-.03.15-.08.31-.18.43-.06.07-.15.11-.24.13-.12-.12-.17-.29-.21-.46-.25-1.06-.5-2.12-.75-3.18h0c.05.9.08,1.8.07,2.7,0,.22,0,.45-.11.65-.06.11-.16.21-.27.26-.1-.11-.18-.27-.23-.41-.13-.45-.27-.9-.4-1.36.12.56.14,1.14.05,1.7-.05,0-.1,0-.14.02-.05.03-.08.08-.11.13-.06.12-.1.24-.13.37-.2.04-.43-.04-.58-.2-.21-.23-.26-.56-.3-.86-.08-.58-.16-1.16-.24-1.75.04.53.08,1.06.12,1.59.02.31.05.64-.03.94-.08.31-.28.6-.59.71-.1.03-.21.05-.3,0-.2-.08-.25-.34-.26-.56-.03-.45-.05-.9-.08-1.35.03.72-.02,1.45-.34,2.09-.1.2-.35.4-.53.36,0,0,0,0,0,0h0s0,0,0,0c-.04-.02-.08-.04-.11-.08-.02-.03-.03-.06-.04-.1,0,0,0-.02,0-.03-.03-.07-.06-.13-.08-.2-.13-.45-.27-.91-.4-1.36.08.36.11.72.1,1.09,0,.33-.01.63-.22.9-.07.08-.14.17-.24.22-.19.08-.43-.03-.56-.18-.2-.23-.26-.56-.3-.86-.02-.17-.06-.34-.07-.52,0-.14.03-.3-.07-.42-.01-.01-.02.25-.02.29.01.16.02.33.04.49.02.32.05.64-.03.94-.08.31-.28.6-.58.71-.1.03-.21.05-.3,0-.12-.05-.2-.19-.26-.37-.13-.43-.08-1.12-.11-1.37,0-.02,0-.04,0-.05,0-.01.03-.01.04-.02.56-.11.6-.6.59-1.06,0,0,0-.02,0-.03,0,.01,0,.02,0,.03,0,.02.02.03.04.04.17.1.38.11.57.06.19-.05.37-.14.53-.25.08-.05.16-.1.22-.17.13-.17.09-.42.04-.63.35.23.84.21,1.19-.02,0-.01,0-.02.01-.02.41-.25.48-.88.19-1.24h0s-.06-.04-.08-.06c-.02-.02-.05-.05-.07-.08.03.02.06.04.08.07.02.02.05.05.07.08.26.16.67.1.83-.17.13-.22.06-.5-.11-.68.05-.03.1-.06.13-.1.19-.29-.33-.53-.43-.86.09.26.54.16.63-.1.09-.27-.06-.54-.2-.78.12.23.49.24.67.05.18-.19.19-.49.09-.73-.1-.24-.29-.43-.47-.62.13.13.37,0,.42-.17.04-.17-.04-.35-.12-.51l-.51-1c.13.04.25.07.38.1.2-.44.11-1-.22-1.35.14.03.27.05.41.08-.04-.59-.28-1.17-.69-1.61.19.25.36.56.31.87-.05.31-.4.59-.69.45.34.32.42.87.2,1.28-.05.09-.11.18-.1.27,0,.1.07.17.12.25.24.35.27.82.08,1.2-.04.08-.09.15-.11.24-.05.23.13.44.18.67.05.23-.23.53-.38.35.16.18.2.75,0,.9-.11.08-.25.12-.39.14.09.26.17.56.02.79-.12.17-.33.23-.54.26-.05,0-.09.01-.14.01-.02,0-.04,0-.06,0,.11.36.12.75.04,1.12-.01.07-.03.14-.08.18-.04.04-.1.05-.16.05-.34.04-.62-.08-.92-.19-.05.17-.04.37-.09.55-.05.19-.17.38-.34.48-.19.12-.43.12-.65.1-.34-.03-.94-.15-1.06-.52.69-.42,1.44-1.05,1.15-1.97ZM77.39,21.77c-.05-.15-.09-.31-.15-.45.03-.03.05-.06.07-.09.03.18.05.36.08.55ZM67.66,29.78c.04-.08.04-.18.1-.25,0,0,.02-.01.03-.01.02,0,.03.02.04.04.11.23.02.53-.12.73-.21.27-.5.28-.83.17-.06.11-.09.21-.14.3-.08.13-.15.27-.26.39-.14.15-.35.21-.54.13-.17-.07-.28-.24-.39-.38-.04-.05-.08-.11-.08-.18,0-.02,0-.05.03-.07.01,0,.02-.01.04-.01.06,0,.11.04.15.08.12.12.24.3.44.28.17-.01.27-.2.32-.34.06-.18.07-.37.11-.56.01-.08.03-.17.05-.25.02-.07.18-.1.23-.04.06.06.1.14.15.21.16.2.37.22.54.04.07-.07.11-.16.15-.25ZM67.25,28.72s.02.06.02.09c0,.02,0,.05-.02.07-.02.03-.04.06-.06.1-.04.06-.07.12-.12.17-.09.1-.2.19-.31.26-.13.08-.27.09-.41.03-.13-.06-.24-.15-.32-.27-.04-.06-.06-.12-.1-.18-.04-.07-.06-.12-.06-.2,0-.02,0-.05.02-.06.02-.03.07-.03.1-.01.03.02.06.05.08.07.05.06.09.11.13.18.03.06.08.12.13.16.12.09.29.09.43.03.17-.08.19-.26.3-.39.02-.02.03-.03.05-.05.04-.02.1-.02.13.02ZM65.45,28.03c.08-.08.14-.17.2-.26.13-.23.19-.51.2-.78,0-.04,0-.08.02-.12.02-.04.05-.07.09-.06.05,0,.08.04.1.08.08.12.06.27.1.4.05.16.14.29.32.3.18,0,.29-.11.37-.25.06-.11.07-.33.22-.36.04.05.05.11.04.17-.01.1-.07.23-.12.32-.05.1-.13.19-.22.25-.25.17-.5.04-.76-.04-.1.15-.18.31-.3.44-.08.08-.32.28-.43.15-.08-.11.09-.19.15-.25ZM57.36,14.09c.13-.14.27-.21.41-.22.07,0,.13,0,.2,0,.22,0,.45-.01.65.04.46.12.84.09,1.18-.09h.03c.17.08.34.14.51.2.19.06.35,0,.49-.06.04-.02.08-.03.13-.05.64.35.94.87.91,1.58v.13c-.01.15-.02.28-.05.41-.09.39.11.64.35.86.06.05.12.09.18.13.03.02.05.03.08.05.64.43,1.16.98,1.54,1.64.28.48.52,1.01.73,1.61.01.04.02.08.02.14,0,.02,0,.03,0,.05-.25.26-.54.44-.87.56-.2.07-.37.07-.53,0-.12-.05-.26-.09-.41-.09-.08,0-.16.01-.26.04-.11.03-.24.02-.39.02-.04,0-.09,0-.14,0-.02-.24-.04-.46-.06-.68l-.03-.32s-.01-.1-.02-.15v-.04c-.05-1.07-.56-1.93-1.56-2.63-.18-.13-.44-.27-.76-.16-.07.02-.15.03-.24.04-.04,0-.07,0-.11.01-.16.02-.27-.02-.39-.12-.69-.62-1.46-1.02-2.3-1.2,0,0-.02-.01-.03-.02.06-.34.12-.75-.06-1.16.06-.04.12-.07.18-.1.21-.09.4-.22.57-.41ZM25.87,28.7c-.1.1-.15.24-.21.37-.07.12-.17.19-.27.29-.2.19-.4.38-.61.57-.14.13-.35.27-.54.28-.03,0-.06,0-.09-.02-.03-.02-.05-.05-.07-.08-.13-.22-.22-.47-.27-.72-.01-.07-.03-.14-.08-.18-.3-.21-.65.64-.76.82-.16.29-.51.54-.8.68-.11.06-.21.1-.34.07,0-.04-.02-.09-.01-.12.01-.08.03-.16.04-.25.02-.1.04-.21.05-.31,0-.11-.04-.24-.13-.31-.12-.09-.28-.08-.42.02-.07.05-.13.1-.19.16-.03.02-.06.05-.09.08-.6.51-1.13.89-1.67,1.18-.25.13-.52.23-.75.31-.08.03-.17.03-.26.04-.01,0-.02,0-.04,0-.04-.04-.03-.08,0-.15.13-.29.26-.59.4-.87l.03-.06c.03-.07.07-.14.11-.21.04-.06.07-.12.11-.19.08-.15.05-.31-.08-.41-.13-.1-.29-.1-.42,0-.14.11-.27.22-.39.35-.16.17-.32.35-.48.52-.2.22-.4.43-.6.64-.15.16-.32.31-.53.47-.3.24-.61.4-.93.46-.03-.11,0-.21.03-.33l.02-.08s.03-.1.04-.14c.03-.1.06-.21.07-.32.01-.12-.1-.24-.16-.29-.08-.06-.22-.05-.3-.02-.06.03-.1.07-.14.11-.02.02-.05.04-.08.06-.12.08-.24.16-.36.25-.25.18-.51.37-.79.52-.57.31-1.24.69-1.86,1.14-.34.24-.66.39-.98.45-.03,0-.07,0-.11,0l.02-.05c.04-.11.08-.21.13-.31.48-1.07,1.17-1.97,2.04-2.67l.08-.06c.33-.27.67-.54,1.02-.78,2.01-1.39,3.78-2.93,5.25-4.26l.75-.68c1.54-1.39,3.13-2.82,4.71-4.2,3.7-3.23,8.03-5.47,11.97-8.36,1.44-1.06,2.89-1.93,4.59-2.52.3-.1.6-.2.91-.31.68-.23,2.74-.87,3.03-.95,2.15-.56,4.37-.78,6.6-.66.99.05,1.78.17,2.48.38.45.13.81.28,1.11.47.57.34.91.83,1.02,1.48.07.4.08.7.03.98-.08.5-.17.99-.27,1.45-.01.07-.05.15-.09.24,0,.02-.02.04-.03.06l-.48-.08-.53.03h-.05s-.09.06-.13.09c-.08.04-.15.08-.22.13-.37.24-.47.51-.36.94v.05c.03.08.06.15.08.23-.01.03-.04.06-.07.08-.03.02-.06.04-.08.06-.04.03-.09.06-.13.09-.08.06-.15.12-.23.18-.14.11-.29.22-.42.35-.61.63-.79,1.36-.53,2.21,0,.05.02.09.04.14l-.05.13c-.04.1-.08.19-.11.29-.07.17-.11.36-.15.54-.1,0-.21-.02-.28-.1-.18-.19-.18-.48-.12-.74.08-.31.22-.6.43-.84-.21.14-.53-.03-.59-.28-.07-.24.05-.5.19-.71.1-.15.22-.3.31-.45-.08.04-.19.03-.26-.03-.13-.12-.12-.33-.08-.51.04-.18.11-.35.18-.51-.22.31-.45.62-.67.93-.24.33-.6.8-.56,1.23,0,.02,0,.04.02.05.02.02.05.02.08.02.03,0,.07,0,.1,0,.04-.01.08-.03.12-.05.09-.05.2-.13.15.03-.04.11-.09.22-.12.34-.07.22-.11.45-.13.68-.02.17-.02.35.05.51.07.16.22.29.4.29-.33.56-.49,1.21-.45,1.86,0,.07.02.14.04.2l.02.05c.03.06.06.12.12.15.09.05.2.04.3.01.25-.06.47-.21.63-.4,0,.07.01.14.03.21.01.06.04.11.07.14l-.04.04.15.04s.03.01.04.01c.07.02.13.01.2-.01.09-.04.18-.09.27-.14l.05-.03c-.04.12-.12.25-.34.51l-.26.59v.06c-.02.06-.03.11-.04.16-.06.3-.13.64-.18.98-.02.19-.04.39-.03.61,0,.02,0,.05,0,.07-.14.14-.19.38-.21.59-.12,1.17-.09,2.36.09,3.52,0,.02.01.04.02.06,0,.02,0,.03,0,.05.06.18.13.35.23.51-.01.11-.02.23-.04.34v.05c-.03.16-.05.3-.19.39-.25-.05-.43-.22-.59-.54-.04-.08-.07-.16-.1-.24-.04-.1-.07-.19-.12-.28-.18-.36-.33-.41-.71-.27l-.07.03c-.1.04-.2.08-.3.11-.33.08-.31-.29-.39-.51-.13-.36-.34-.69-.46-1.05-.22-.65-.18-1.33-.22-2.01-.03-.59-.04-1.18-.01-1.77-.33.72-.48,1.5-.66,2.27-.06.27-.11.42-.39.52-.13.05-.27.05-.39-.02-.17-.11-.2-.34-.2-.53-.01-.52.05-1.03.19-1.53.1-.37.17-.72.34-1.08-.3.53-.6,1.06-.91,1.59-.12.21-.04.45-.35.24-.25-.17-.39-.46-.42-.76-.18.35-.76.4-.99.08-.14-.19-.15-.44-.14-.67.04-.93.31-1.85.78-2.66-.52.37-.85.95-1.13,1.52-.23.46-.44.96-.38,1.46.06.51.49,1.01,1.01.97.05,0,.1-.01.14.02.1.06.03.21,0,.33-.06.22.12.45.34.54.22.08.46.06.7.03,0,0,.02.02.04.05-.23.27-.33.76-.2,1.12-.17,0-.26-.06-.4-.15-.2-.13-.43-.25-.66-.21-.16.03-.28.14-.4.24-.35.34-.59.72-.88,1.1-.11.14-.27.25-.46.21-.47-.1-.43-.91-.36-1.26.04-.21.12-.42.11-.64,0,0-.19.12-.21.15-.07.07-.11.15-.16.24-.12.24-.23.5-.37.73-.09.14-.22.45-.36.54-.07.04-.16.04-.24,0-.08-.03-.14-.09-.2-.14-.46-.4-.5-1.18-.34-1.72.04-.11.07-.25-.01-.33-.04-.03-.09-.05-.14-.05-.15,0-.4.25-.54.15-.06-.04-.11-.13-.15-.22-.02-.04-.04-.09-.07-.13-.07-.11-.15-.18-.25-.19-.1-.02-.2.01-.3.09-.1.08-.18.16-.25.24-.4-.14-.7-.57-.63-.99-.9.45-1.86.77-2.86.96-.3.06-.71.02-.76-.27-.02-.13.05-.26.12-.37.34-.5.8-.92,1.33-1.21-.86.42-1.79.71-2.75.85-.38.06-.92-.02-.94-.41,0-.16.1-.3.2-.43.37-.45.82-.84,1.31-1.15-.79.52-1.66.92-2.57,1.2-.37.11-.81.19-1.12-.04-.23-.16-.24-.5-.1-.72-.21.19-.56.28-.83.36-.32.09-.66.12-.99.11-.12,0-.24-.02-.33-.1-.3-.27.05-.77.3-1.04-.36.37-.73.72-1,1.18-.1.18-.2.45-.1.64.18.31.7.2.97.13.19-.05.37-.1.56-.16.13-.04.27-.08.41-.13.07-.02.35-.1.38-.17-.21.52.37,1.08.94,1.1.57.02,1.08-.31,1.55-.63-.19.26,0,.65.29.8.29.14.64.1.96.03.56-.11,1.1-.28,1.63-.5-.2.5-.95.9-.7,1.38.11.2.35.28.58.33.88.16,1.83-.04,2.57-.54.16-.11.34-.25.53-.23.16,0,.29.11.43.17.14.06.29.08.44.08-.17.22-.37.45-.64.66-.33.25-.7.36-1.16.35-.19,0-.36-.01-.48-.14-.13-.13-.32-.13-.48.02-.11.11-.22.22-.33.33-.08.08-.17.17-.25.26-.37.36-.78.61-1.23.74h-.04s-.07.03-.09.04c-.05-.02-.1-.05-.11-.06,0-.06,0-.12.01-.18.01-.05.02-.1.02-.15.01-.17-.08-.31-.22-.35-.1-.04-.24,0-.33.05l-.61.42c-.49.34-.98.68-1.47,1.02-.17.12-.36.21-.57.32-.1.05-.22.08-.31.11-.16.04-.22,0-.28-.15-.01-.04-.02-.09-.04-.13-.02-.07-.04-.15-.07-.22-.04-.1-.12-.17-.22-.2-.09-.02-.2,0-.29.06-.1.08-.2.17-.29.25l-.06.06c-.5.46-1.03.89-1.61,1.24-.54.31-1.11.49-1.67.74-.02.01-.05.02-.07.02-.05,0-.09-.03-.13-.07-.24-.22-.48-.43-.72-.65-.15-.14-.4-.37-.6-.15ZM33.44,33.96c-.39.09-.77.18-1.16.27-.58.14-1.17.28-1.76.41-.46.1-.95.19-1.47.24-.82.1-1.62-.06-2.35-.44-.88-.46-1.65-1.12-2.37-2.02.04-.01.07-.02.1-.02h.66c.44,0,.88,0,1.32,0,.26,0,.44-.03.55-.15.1-.12.09-.31.04-.56-.07-.34-.14-.68-.22-1.02-.05-.23-.1-.45-.14-.68,0-.02,0-.04,0-.06.08.06.15.11.22.16.53.4,1.03.69,1.55.89.65.24,1.31.32,1.94.23.41-.06.81-.13,1.22-.19.22-.04.45-.08.68-.11.81-.13,1.49-.16,2.14-.08.89.11,1.62.43,2.23.97.95.83,1.49,1.88,1.62,3.1-.5-.79-1.27-1.2-2.27-1.23-.87-.02-1.72.13-2.49.3ZM33.1,38.05c0-.08,0-.15.02-.22h0c.1-.34.28-.65.55-.92.24-.24.51-.48.76-.71l.02-.02c.15-.13.3-.26.45-.39.2-.17.4-.34.6-.52.26-.23.55-.51.71-.89.61.02,1.17.38,1.45.94.2.39.29.84.27,1.38,0,.08-.03.16-.06.27-.2.59-.86,1.57-1.4,2.1-1.04-.06-2.09-.37-3.38-1v-.03ZM38.26,44.62h0c-.97-.15-1.75-.37-2.45-.69-1.05-.47-1.78-1.21-2.24-2.27-.37-.85-.56-1.75-.59-2.68,0-.03,0-.06,0-.1,0-.03,0-.05,0-.08.08.03.15.06.22.09l.17.07c.87.37,1.57.59,2.25.7.69.11,1.38.15,2.04.12,1.32-.06,2.6-.32,3.9-.61l1.15-.26c1.31-.29,2.66-.59,4-.86,1.11-.23,2.24-.36,3.37-.37h.1c1.19,0,2.43.18,3.91.57.41.11.82.24,1.22.36.22.07.44.14.66.2.22.06.36.17.46.33.13.21.27.41.43.62.06.08.11.15.17.23l.06.08.09-.05c.18-.11.21-.28.23-.41,0-.08.02-.14.04-.18.04.03.08.05.12.08l.1.06s0,.02,0,.03c0,.03.01.05.01.07,0,.11,0,.22,0,.33,0,.18,0,.36.01.54.04.63.23,1.23.57,1.78.25.41.57.81.93,1.19.03.03.06.07.1.1-.07-.01-.14-.02-.19-.04-1.63-.41-3.24-.72-4.78-.95-2.14-.31-4.11-.35-6.02-.13-1.03.12-2.14.36-3.5.75-1.3.37-3.01.83-4.78,1.13-.45.08-.92.16-1.38.23-.15.02-.27.03-.38,0ZM36.28,47.83c.33.18.66.36.99.54.27.15.53.29.8.43,0,.01,0,.02.01.03.01.04.02.06.01.09-.15,3.67-.12,6.98.09,10.11-.05-.01-.08-.02-.11-.04-.16-.1-.31-.2-.47-.3-.11-.08-.23-.15-.34-.22-.59-2.17-1.23-9.12-.99-10.64ZM35.16,58.03v-.07s.02,0,.03.01c.07.03.11.06.16.09.28.18.57.36.85.54.59.38,1.18.75,1.77,1.12.2.13.29.27.3.5.18,2.64.54,5.39,1.05,8.16.42,2.25.95,4.49,1.62,6.68.61,2,1.27,4.12,2.2,5.99,1.87,3.79,4.05,7.31,6.9,10.44.08.09.16.18.24.28-.33.49-1.43,1.64-2.02,2.11-.07-.02-.12-.08-.17-.14-.03-.03-.05-.06-.08-.09-3.17-3.04-5.71-6.61-7.55-10.61-1.91-4.16-3.32-8.47-4.16-12.82-.46-2.33-.77-4.69-.94-7.02-.12-1.67-.19-3.3-.2-4.84,0-.1,0-.21,0-.33ZM22.69,39.25s.01-.08.02-.12c0,0,.01,0,.02.01.06.04.12.07.18.11,2.12,1.5,4.38,3.02,6.72,4.53l.04.02c.07.05.15.09.21.15.2.16.29.34.31.62.08,1.67.18,3.64.33,5.66.05.79.14,1.59.22,2.36.05.42.09.83.13,1.25,0,.06.01.11.02.17.02.14.04.27.02.4-.48-.3-.95-.6-1.43-.9l-2.53-1.61c-1.57-1-3.15-2.01-4.72-3.01.13-3.69.27-6.76.45-9.64ZM19.45,39.93c-1.32-1.63-2.67-3.29-4.01-4.95.99.34,1.98.69,2.97,1.03,1.03.36,2.06.71,3.1,1.07.11.34.23.67.34.99l.16.46.02.08c-.02.17-.02.34-.03.51,0,.22-.01.43-.04.64-.47.08-1.91.18-2.51.15ZM18.19,48.93c-.46,0-.95,0-1.42,0-.24.01-.41-.07-.57-.28-.52-.62-1.04-1.24-1.56-1.87-.32-.37-.63-.75-.94-1.12-.37-.44-.74-.88-1.1-1.32l-.84-1s-.07-.09-.11-.13c.03,0,.06.02.1.04.03.01.05.02.08.03,1.3.5,2.6,1,3.9,1.5.28.11.56.22.85.33.67.26,1.36.53,2.05.78.25.09.36.22.4.45.04.21.09.43.15.63.02.07.04.15.06.22.16.62.15,1.03-.03,1.72h-.07c-.33.02-.63.01-.94,0ZM28.2,94.94h0c-.11-.09-.2-.2-.3-.32l-.06-.08c-1.23-1.54-2.3-3.28-3.27-5.3-.95-1.98-1.77-4.19-2.58-6.93-.84-2.84-1.5-5.77-1.94-8.71-.3-1.98-.53-4.06-.67-6.19-.17-2.46-.23-5.14-.18-8.17.04-1.9.13-3.76.28-5.55.13-1.5.27-3.01.42-4.48l.05-.5c.01-.15.02-.3.07-.43.01,0,.03,0,.04.02,2.54,1.61,5.08,3.24,7.62,4.86l.74.47s.02.02.04.05c.01.01.02.02.03.04v.02c0,.08,0,.18,0,.27-.09,2.51-.07,5.12.06,7.77.18,3.53.57,6.69,1.19,9.64.75,3.59,1.9,7.21,3.4,10.78,1.16,2.77,2.38,5.24,3.72,7.55,1.29,2.22,2.52,3.95,3.87,5.45.43.48.89.93,1.34,1.38.22.21.43.43.65.65.09.09.18.18.28.28-.11.07-.22.11-.35.15l-.1.04c-1.33.47-2.73.76-4.17.86-1.38.09-2.73-.04-4.02-.39-.86-.23-1.76-.58-2.82-1.11-1.06-.54-2.12-1.21-3.34-2.12ZM60.25,115.55c-.08.32-.37.59-.76.71-.02-.08-.01-.18,0-.28v-.02h0c.02-.14.02-.29.03-.43,0-.24.02-.47.09-.7h0c.06,0,.12,0,.17,0,.21.04.36.12.43.23.07.12.08.28.03.48ZM60.55,110.49l-.06.78c-.07.96-.15,1.95-.26,2.95h0c-.06,0-.11-.01-.16-.02-.4-.1-.79-.05-1.17,0-.61.07-1.27.11-1.92-.03-.17-.03-.31-.08-.42-.13-.3-.14-.38-.31-.32-.64.05-.28.19-.5.41-.64.2-.13.43-.25.67-.34.15-.06.29-.1.45-.14.1-.03.19-.06.31-.09.18-.05.36-.11.52-.21.15-.08.25-.2.29-.35.03-.15,0-.31-.11-.45-.1-.14-.22-.25-.36-.34-.21-.14-.48-.31-.77-.44-.9-.42-1.89-.67-2.94-.73-.42-.03-.84-.04-1.28-.05h-.34c.01-.05.02-.09.04-.12.15-.27.31-.54.47-.8.19-.32.38-.64.57-.97,1.47-2.56,2.77-5.56,3.49-8.48.05-.18.09-.34.11-.51.01-.08,0-.16-.05-.23-.07-.06-.14-.11-.21-.17-.09-.02-.18-.02-.27.03-.11.05-.21.12-.31.19l-.1.06c-1.66,1.07-3.04,1.94-4.03,2.42-1.87.91-3.62,1.51-5.34,1.83-1.59.3-3.24.36-4.92.19-3.97-.39-7.54-1.91-10.9-4.66-.4-.33-.8-.69-1.17-1.04l-.32-.29.04.02c1,.58,1.95,1.03,2.9,1.39,1.88.7,3.86.93,6.02.7,1.1-.12,2.19-.35,3.26-.69,1.49-.47,2.89-1.22,4.3-2.28,1.32-.99,2.57-2.15,3.84-3.54.1-.11.21-.23.31-.33,0,0,.01,0,.02,0,2.01,2.12,4.23,4.11,6.68,6.01.04.01.08.03.12.05.04.03.08.07.1.12,1.07.82,2.18,1.62,3.33,2.4-.07,2.97-.22,6.11-.49,9.6ZM56.56,110.7c.17.01.33.08.49.16.04.02.09.04.13.06l.12.05c.28.13.55.25.77.47-.15.08-.32.13-.48.17-.12.03-.24.06-.36.11-.18.08-.36.15-.55.23l-.27.11c-.02-.22,0-.63.15-1.35ZM63.29,101.36s-.08.05-.12.07c-.14-.05-.26-.13-.38-.21l-.08-.05c-2.28-1.44-4.57-3.12-6.79-4.99-.17-.15-.35-.3-.52-.45l-.16-.14c.08-.99.59-1.71,1.56-2.22.07-.04.16-.05.27-.07l.17-.03c.1-.02.19-.04.29-.06.66-.14,1.04-.56,1.08-1.18.02-.29.15-.46.37-.67.29-.26.57-.32.89-.21.76.28,1.23.12,1.71-.59.02-.04.06-.07.08-.1.01,0,.02,0,.04-.01.15-.04.49.09.67.08.22-.02.43-.09.64-.11.48-.04.92-.26,1.4-.29.13,0,.25,0,.38.02.4.05.79.15,1.16.29.22.08.3.27.5.38.25.13.52.04.73-.13.04-.04.08-.07.12-.11.04-.03.07-.07.1-.1.08-.06.15-.12.24-.16.2-.1.43-.1.62,0,.19.11.31.3.32.53,0,.05,0,.09-.03.15-.02.04-.04.08-.06.12-.03.05-.05.1-.08.15-.18.38-.16.45.19.69.13.09.16.18.12.33-.04.12-.08.24-.13.37l-.06.15c-.02.06-.05.11-.07.17-.04.1-.09.2-.12.31-.12.4-.02.68.34.9.12.08.24.14.36.19l.11.05c.53.27.73.36.51,1.15-.06.23-.15.46-.23.68-.06.16-.11.32-.16.48-.05.17-.15.3-.32.44-.2.15-.39.31-.59.46-.31.25-.63.5-.96.74-1.23.91-2.46,1.81-3.82,2.81-.09.07-.18.13-.28.19ZM66.53,116.19c-.37-.08-.64-.44-.74-.97l.04-.03c.07-.05.13-.1.2-.15.08-.05.16-.09.25-.14l.04-.02s0,0,0,0c.03.04.05.07.06.1.1.42.19.81.15,1.2ZM87.51,102.23c-1.89.57-3.86.76-6.01.6-2.62-.19-5.31-.92-8.22-2.22-1.37-.61-2.73-1.31-4.03-2.07l-.05-.03c-.12-.07-.24-.13-.37-.19-.1-.04-.21-.03-.3.03-.09.06-.15.16-.14.27.01.17.04.34.08.52.61,2.37,1.35,4.44,2.24,6.33.63,1.33,1.33,2.66,2.1,3.94.02.04.05.08.07.11.05.08.1.14.12.22-.2.04-.4.05-.6.06h-.11c-.57.03-1.15.06-1.73.09l-.97.05c-.52.03-1.04.16-1.53.38-.29.13-.53.3-.7.52-.32.39-.28.77.08,1.09.18.16.4.29.61.42.55.31,1.03.71,1.47,1.22.05.06.09.12.13.19l.03.04c-.13.36-.17.37-.49.33-.22-.02-.41-.06-.59-.11-1.01-.28-1.96-.15-2.82.37-.03.01-.06.03-.08.04-.01,0-.02,0-.03.01-.02-.01-.02-.03-.02-.08v-.03c-.02-.22-.04-.44-.04-.66-.05-1.26-.1-2.52-.15-3.78-.03-.83-.07-1.67-.1-2.5-.08-2.02-.17-4.05-.26-6.08,0-.09,0-.18,0-.27v-.12c.14-.11.28-.22.43-.33,2.14-1.55,3.96-2.98,5.57-4.36,1.47-1.25,2.83-2.54,4.06-3.82.08-.09.18-.17.27-.25.08.04.13.12.19.2.01.02.03.05.05.07.65.85,1.37,1.67,2.14,2.44,2.1,2.11,4.64,3.45,7.52,3.98,2.99.56,5.7.34,8.27-.65.94-.36,1.85-.87,2.77-1.55-2.67,2.78-5.56,4.6-8.85,5.58ZM69.7,112.77c-.4-.39-.86-.74-1.41-1.06-.15-.09-.28-.19-.41-.29-.01-.01-.03-.03-.04-.06,0-.02.01-.05.02-.06.14-.14.26-.24.37-.31.1-.07.23-.11.35-.15.15-.05.31-.09.48-.13h.05c.33.6.57,1.45.58,2.06ZM106.75,62.3c-.03,2.58-.16,5.12-.38,7.54-.29,3.07-.75,6.05-1.37,8.86-.84,3.76-1.93,7.02-3.31,9.96-.37.8-.79,1.61-1.24,2.41-1.2,2.1-2.89,3.93-5.03,5.42-1.3.9-2.81,1.49-4.6,1.78-2.32.39-4.66.23-6.97-.48-.16-.05-.32-.11-.5-.17.04-.08.09-.14.16-.2.03-.03.06-.06.08-.09,1.16-1.26,2.25-2.57,3.24-3.87,1.99-2.61,3.66-5.5,5.1-8.84,1.91-4.43,3.38-9.12,4.37-13.95.45-2.16.79-4.36,1-6.52.3-2.92.42-6.13.36-9.81,0-.12,0-.24,0-.37v-.15c3.08-1.91,6.02-3.86,8.5-5.52.04.15.05.3.05.47v.07c.13,2.19.25,4.38.36,6.58.13,2.55.19,4.8.18,6.89ZM109.67,48.92c-.5,0-1-.02-1.48-.05-.41-.02-.83-.05-1.24-.05-.14-.44-.14-1.01,0-1.36.08-.19.15-.37.23-.55.14-.34.28-.68.41-1.01.08-.19.19-.3.39-.37,1.24-.42,2.49-.84,3.73-1.26l1.6-.55c.35-.12.69-.24,1.04-.36l.25-.08c-1.65,1.88-3.3,3.76-4.95,5.64Z"/>
    <g>
      <path class="cls-1" d="M65.79,60.03c.05.15.12.29.21.42.1.15.14.3.13.49-.05.6.25,1.03.76,1.3.6.32,1.23.31,1.84.03.13-.06.26-.13.36-.18.26.08.48.17.71.23.48.12.96.12,1.38-.17.23-.16.46-.19.71-.12.12.03.26.03.38.04.66.04,1.22-.16,1.66-.67.06-.07.13-.14.19-.2.15,0,.3,0,.44,0,.44,0,.89,0,1.33-.04.89-.07,1.55-.52,2.01-1.26.08-.12.16-.24.22-.33.08-.02.13-.03.17-.03,1.06-.08,1.72-.66,2.08-1.61.13-.34.18-.7.19-1.06,0-.14.01-.28.01-.39.17-.14.32-.26.46-.39.49-.46.66-1.03.54-1.67-.05-.24-.14-.48-.24-.71-.06-.15-.13-.28-.2-.43.06-.17.14-.35.2-.52.14-.37.18-.73.08-1.11-.17-.63-.57-1.05-1.21-1.21-.63-.17-1.19,0-1.62.51-.1.11-.19.22-.25.34-.1.2-.27.29-.47.36-.6.18-1.03.55-1.21,1.16-.03.11-.07.21-.16.28-.23.2-.44.4-.65.59-.43.06-.87.09-1.28.17-.24.05-.42.04-.62-.1-.31-.23-.67-.36-1.05-.43-1.05-.18-1.99.07-2.81.72-.75.59-1.31,1.32-1.7,2.19-.26.58-.37,1.19-.27,1.84.03.13.07.27-.01.42-.08-.04-.14-.07-.21-.11-.29-.16-.6-.19-.93-.16-.89.1-1.44.98-1.15,1.81ZM79.09,51.06c.17-.16.38-.24.6-.25.51-.02.89.2,1.16.62.13.21.19.43.17.67,0,.28-.04.4-.21.65-.33-.24-.64-.51-1-.71-.34-.19-.72-.31-1.1-.47.03-.23.2-.37.37-.51ZM70.32,54.39c.67-.54,1.45-.76,2.32-.67.59.06,1.08.33,1.51.74.5.49.87,1.08,1.17,1.71.05.11.11.23.18.33l.13.02.04-.07c0-.08-.01-.16-.04-.23-.19-.55-.44-1.08-.78-1.56-.07-.09-.14-.2-.2-.28.03-.13.12-.13.19-.14.45-.11.9-.1,1.33.02.47.12.85.43,1.11.85.16.25.27.53.37.81.08.2.16.28.24.23.12-.08.07-.19.04-.3-.18-.77-.58-1.39-1.26-1.81-.08-.05-.16-.11-.24-.16l-.03-.04c.04-.18.18-.25.34-.28.81-.15,1.55-.06,2.18.52.12.11.24.21.37.3h.16s.03-.11.04-.16l-.02-.04c-.49-.55-1.05-.96-1.81-1.05-.19-.02-.38.01-.57-.08.02-.31.17-.55.41-.72.32-.24.66-.37,1.07-.32.97.1,1.7.56,2.14,1.43.06.11.13.22.19.33.08.18.16.34.22.52.19.65.04,1.2-.51,1.64-.16.12-.4.19-.45.39-.04.17.02.37.01.56-.02.28-.03.57-.09.84-.14.61-.54,1.03-1.12,1.27-.28.11-.57.19-.88.19-.16,0-.26.07-.34.2-.08.15-.18.3-.27.45-.36.54-.88.85-1.53.92-.57.07-1.14.05-1.72,0-.04,0-.08-.04-.15-.07.06-.12.11-.22.16-.33.85-1.56.65-3.45-.5-4.81-.33-.4-.72-.71-1.19-.93-.76-.34-1.53-.4-2.3,0-.04.02-.08.03-.17.05.08-.14.18-.21.27-.29ZM70.53,57.72h0s0,0,0,0ZM71.65,59.81c.19.23.33.5.48.76.06.09.08.21.16.29.04.04.15.07.2.05.06-.02.11-.11.13-.17.02-.05,0-.12-.03-.18-.18-.45-.42-.88-.79-1.21-.15-.13-.33-.25-.52-.33-.17-.07-.25-.17-.29-.34-.12-.39-.19-.79-.11-1.2.02-.09.03-.19.06-.27.34-.85.98-1.23,1.94-1,.34.08.65.26.93.46.08.06.17.15.2.25.47,1.28.36,2.5-.45,3.62-.29.4-.7.63-1.17.77-.2.06-.39.13-.51.31-.1-.02-.17-.03-.24-.06-.17-.06-.31-.03-.44.09l-.12.08c-.35.26-.75.33-1.18.2-.15-.04-.29-.1-.47-.15.09-.31.21-.58.16-.89-.05-.3-.18-.57-.34-.8.53-.87,1.76-1,2.4-.26ZM68.53,60.03s.03.02.05.03c.25.19.45.43.56.73.09.3.01.58-.21.82-.49.52-1.44.58-2.01.14-.34-.27-.45-.64-.3-1.05.05-.13.12-.25.21-.37.18-.24.43-.37.72-.42.37-.06.68-.09.99.11ZM67.36,58.67c.39.08.64.3.73.71-.36.08-.67.14-.97.23-.31.09-.51.35-.76.57-.27-.39-.29-.75-.04-1.12.21-.33.64-.49,1.05-.39Z"/>
      <path class="cls-1" d="M45.33,56.66c0,.12.03.24.05.37.08.54.25,1.04.56,1.49.32.47.72.84,1.28,1.01.23.06.39.18.54.36.27.33.57.63.93.86.69.46,1.44.64,2.27.43.08-.03.16-.03.24-.04.07.05.13.1.2.14.06.05.12.1.18.15.65.53,1.39.74,2.22.69.07,0,.13,0,.19-.01.27-.04.53-.01.79.08.48.17.97.16,1.45-.03.13-.05.27-.11.41-.05.33.15.55-.04.75-.24.06-.07.1-.15.16-.23.12.03.23.06.33.09.47.15.94.11,1.41-.03.36-.1.53-.31.58-.77.03-.32-.14-.56-.51-.72-.12-.06-.26-.1-.43-.16-.04-.2-.07-.42-.1-.63-.08-.54-.37-.92-.88-1.15-.11-.05-.22-.11-.32-.17,0-.33.01-.62,0-.92-.11-1.77-1.08-2.96-2.67-3.7-.54-.25-1.1-.29-1.68-.17-.41.09-.79.21-1.17.39-.21.1-.41.13-.64.05-.45-.16-.93-.2-1.41-.15-.11,0-.22,0-.35,0-.17-.3-.35-.59-.65-.77-.01-.06-.03-.11-.04-.15-.03-.52-.27-.9-.78-1.08-.13-.05-.19-.14-.25-.26-.15-.26-.33-.5-.57-.7-.28-.24-.59-.36-.96-.34-.59.02-1.03.29-1.37.74-.29.4-.42.85-.38,1.33.04.53,0,1.05-.13,1.58-.21.82-.06,1.59.54,2.23.13.14.19.28.2.46ZM51.8,54.44c.06-.09.15-.17.25-.22.55-.31,1.12-.52,1.76-.54.29,0,.57.02.85.13,1.18.48,2.02,1.29,2.41,2.51.16.49.19,1.02.15,1.54l-.04.07c-.13-.03-.11-.14-.12-.22-.03-.48-.13-.93-.29-1.37-.15-.39-.37-.74-.68-1.02-1.33-1.2-3.11-.81-3.96.42-.49.69-.68,1.49-.59,2.33.1.95.53,1.77,1.08,2.53.13.17.26.2.36.11.09-.08.1-.19,0-.34-.05-.09-.12-.18-.18-.27-.19-.3-.37-.59-.5-.93.12-.25.27-.45.62-.45-.02.16-.04.3-.04.44,0,.1.06.18.16.2.09.02.2-.03.23-.13.03-.1.05-.21.08-.32.1-.36.27-.49.65-.51h.1c.27.07.43-.01.58-.27.22-.37.59-.56,1.04-.56.33,0,.62.11.85.37.05.06.09.12.15.18.1.12.1.12.39.1.06.08.1.19.18.26.07.05.18.06.27.09.11.05.24.1.35.14.27.15.45.37.49.66.04.2.07.4.1.6.01.1.01.19.04.28.02.14.11.22.25.24.16.03.31.07.46.13.12.04.22.13.21.28,0,.17-.05.31-.23.38-.3.09-.62.18-.94.1-.22-.05-.42-.14-.63-.2-.14-.03-.29-.06-.42-.06-.14,0-.21.1-.2.25,0,.05.03.09.03.13,0,.11-.07.2-.17.19-.14-.01-.28-.05-.43-.07-.17-.02-.33-.02-.48.12-.18.18-.44.16-.68.12-.2-.03-.4-.1-.59-.17-.17-.06-.33-.08-.51-.05-.28.04-.57.06-.86.04-.57-.02-1.07-.26-1.51-.62-.05-.04-.1-.09-.11-.15-.06-.27-.26-.46-.39-.7-.1-.18-.21-.36-.3-.53-.62-1.17-.64-2.38-.19-3.6.23-.61.58-1.15.98-1.66ZM54.24,57.91c-.05.01-.1.04-.16.05-.29.01-.55.11-.81.22-.25.1-.53.11-.78.18-.13.04-.25.13-.37.2-.17-.37-.22-.91-.13-1.43.11-.58.35-1.06.76-1.46.77.33,1.21.87,1.34,1.67.03.18.09.36.15.56ZM45.04,53.82c.12-.41.15-.83.13-1.25-.01-.22-.02-.45.02-.66.11-.56.42-.96,1.01-1.14.37-.12.69-.04.97.21.1.08.17.18.24.26-.04.14-.13.1-.2.11-.23.06-.47.1-.68.19-.36.15-.62.42-.77.82.17.01.23-.08.3-.15.27-.24.57-.4.93-.45.21-.03.4-.05.6.07.12.07.27.07.41.12.37.11.61.32.59.77-.11.02-.23.05-.35.07-.83.13-1.41.6-1.82,1.31-.04.05-.07.11-.08.17-.01.05,0,.11.01.17.05-.01.13-.01.16-.05.07-.07.1-.16.16-.23.13-.16.25-.33.4-.48.41-.42.94-.55,1.53-.53.33.02.5.18.66.61-.41.31-.78.68-.94,1.2-.04.15-.12.3-.04.48.06-.05.12-.08.14-.12.07-.11.11-.23.18-.33.14-.19.28-.38.45-.55.24-.24.53-.39.88-.42.42-.04.83-.04,1.23.08.08.01.14.06.24.1-.1.15-.2.3-.29.44-.47.69-.81,1.42-.96,2.24-.18,1.04-.03,2.03.45,2.97.13.26.29.52.45.82-.53.24-1.01.19-1.49.03-.38-.13-.71-.34-1-.61-.19-.18-.37-.39-.56-.59-.15-.17-.31-.29-.54-.36-.85-.26-1.36-.85-1.58-1.67-.09-.32-.12-.65-.13-.98-.01-.24-.06-.4-.26-.56-.4-.3-.61-.73-.58-1.23.01-.29.05-.6.13-.88Z"/>
      <path class="cls-1" d="M62.19,56.64c-.38-.4-.83-.73-1.33-.99-.44-.22-.89-.43-1.33-.65-.08-.04-.17-.07-.26-.1-.15-.04-.3.07-.3.22,0,.12.04.25.09.36.26.59.56,1.16.91,1.7.55.83,1.29,1.38,2.25,1.65.16.04.3.09.45.14.12.55.06,1.05-.04,1.56-.02.13-.07.25-.07.37,0,.08.03.2.1.25.34.23.69.46,1.03.67.12.07.27,0,.32-.12.04-.09.06-.18.08-.27.03-.26.07-.53.08-.8.03-.48.06-.97-.02-1.46-.06-.29-.08-.58-.12-.88.16-.09.3-.16.44-.24.48-.26.92-.56,1.29-.97.72-.8,1.13-1.77,1.4-2.8v-.04c.04-.22-.06-.36-.28-.32-.22.03-.43.11-.64.16-.15.04-.28.16-.45.12v-.07s.07-.12.07-.12c.34-.46.52-.97.6-1.52.18-1.21-.02-2.32-.96-3.21-.05-.05-.09-.11-.14-.18.17-.22.33-.41.47-.62.11-.15.01-.33-.18-.32-.24,0-.48.04-.71.06-.2.02-.41.08-.6.01-.03-.06-.06-.1-.08-.13-.25-.45-.26-.46-.72-.25-.31.14-.56.17-.85-.03-.14-.11-.32-.15-.5-.13-.17.02-.22.16-.3.27-.09.11-.21.13-.34.09-.13-.06-.26-.12-.39-.18-.11-.05-.23-.1-.35-.13-.17-.04-.32.12-.28.29.02.09.06.18.1.27.05.16.1.33.05.53-.09.07-.19.14-.3.21-.63.4-1.03.97-1.23,1.68-.08.28-.14.59-.16.88-.07,1.51.47,2.71,1.86,3.44.3.15.61.27.92.4.12.05.22.11.28.24.17.36.33.71.41,1.13-.07-.02-.09-.02-.11-.03-.05-.05-.11-.1-.17-.16ZM63.79,48.25c.08.13.15.22.21.34.08.14.21.18.37.16.22-.03.44-.06.65-.09.06.18-.09.24-.14.35-.07.14-.07.23.04.35.06.07.14.13.2.19.65.59.95,1.31.96,2.18,0,.43-.04.85-.18,1.25-.38,1.14-1.21,1.76-2.38,1.99-.02,0-.06-.01-.11-.04.08-.12.16-.24.23-.34.32-.44.59-.9.79-1.4.24-.59.37-1.2.36-1.83-.01-.62-.16-1.18-.51-1.69-.21-.31-.46-.6-.7-.89-.08-.09-.17-.18-.3-.33.21-.08.35-.14.5-.2ZM64.33,55.29c-.27.3-.51.54-.56.91-.13-.24-.26-.47-.41-.73.28-.07.54-.14.8-.2.02-.01.05,0,.17.02ZM62.25,48.6c-.76.38-1.21,1.01-1.39,1.81-.18.76-.14,1.53.05,2.29.16.67.46,1.3.8,1.91.06.11.11.22.17.33v.04s-.05.03-.05.03c-1.72-.55-2.36-1.62-2.41-2.98-.02-.48.05-.94.22-1.38.19-.5.49-.91.95-1.21.06-.04.13-.09.2-.13.3-.17.45-.39.35-.74v-.09l.03-.06c.06,0,.09,0,.12.02.36.23.66.14.94-.14l.13-.11c.15.05.3.06.34.24-.15.06-.3.11-.44.18ZM62.66,56.01c-.06-.15-.12-.29-.17-.42.06-.09.12-.06.17-.02.49.25.71.65.72,1.18,0,.14.02.28.04.43.01.1.08.18.19.18.08,0,.19-.02.25-.08.07-.05.12-.15.15-.24.1-.3.2-.59.28-.9.04-.12.07-.24.16-.33.57-.61,1.23-1.09,2.04-1.34.04-.01.08,0,.16-.01,0,.07,0,.13-.02.18-.16.63-.41,1.22-.76,1.77-.4.65-.97,1.11-1.69,1.38-.18.07-.35.14-.51.19-.12.28-.07.53-.02.78.13.69.12,1.37.07,2.07,0,.14.01.28-.12.4-.21-.07-.38-.21-.57-.35.02-.14.03-.27.06-.41.11-.47.09-.94.06-1.41-.02-.33-.14-.45-.48-.54-.19-.05-.37-.09-.56-.13-.68-.17-1.21-.55-1.57-1.14-.28-.48-.55-.95-.82-1.43-.04-.06-.05-.14-.07-.19.07-.08.13-.03.19-.01.27.13.54.26.81.4.87.45,1.54,1.1,2,1.95l.05.07c.05.04.12.08.16.07.07-.02.16-.07.17-.13.03-.12.03-.25.02-.37-.03-.56-.17-1.09-.37-1.6Z"/>
      <path class="cls-1" d="M57.7,70.76c.12.05.24.06.38.06.09,0,.17.05.28.09-.04.2-.07.37-.1.54-.23,1.03-.34,2.08-.39,3.13-.01.29.09.47.36.6.61.3,1.24.55,1.93.64.16.02.31.06.47.1-.01.15-.01.28-.03.4-.07.44-.14.89-.22,1.32-.03.17-.01.31.1.45.45.55.88,1.11,1.33,1.65.24.28.53.29.75-.03.31-.47.66-.91.98-1.37.36-.51.36-.4.26-.97v-.04c-.03-.12-.05-.25-.05-.37,0-.12-.07-.25,0-.37.45-.03.88-.06,1.33-.09.27.34.51.67.76,1.01.14.19.31.31.56.34.27.03.54.09.82.12.51.04,1-.08,1.46-.28.17-.07.29-.2.39-.35.07-.1.05-.21-.05-.3-.07-.07-.15-.12-.22-.18-.23-.16-.45-.32-.68-.47-.49-.31-.72-.76-.68-1.33.02-.37.03-.74.05-1.1.02-.56,0-1.12-.09-1.67-.24-1.38-.59-2.74-.93-4.1-.08-.33-.22-.63-.35-.94-.32-.7-.88-1.13-1.63-1.31-.69-.17-1.38-.15-2.08-.05-.86.12-1.66.43-2.41.84-.72.4-1.39.87-2.06,1.35-.28.2-.41.43-.41.76-.01.51-.03,1.02-.06,1.53-.01.21.08.33.27.41ZM60.66,75.54c-.45.06-1.9-.52-2.16-.77.13-.03.25-.07.38-.09h0c.07.17,1.52.61,1.81.56-.02.12-.02.25-.04.31ZM61.99,79.28c-.34-.42-.68-.85-1.03-1.27-.11-.13-.17-.27-.13-.44.21-1.02.28-2.05.23-3.09,0-.04.03-.09.05-.19.33-.02.65-.04.98-.04,0,.83,0,4.04,0,5.13-.04-.03-.08-.07-.11-.1ZM63.65,76.07s-.06-.18-.08-.24c.36.12.89.1,1.18-.07.02.06.05.14.08.24-.33.22-.93.22-1.18.07ZM57.92,68.66c.07-.07.12-.15.2-.2.71-.54,1.44-1.04,2.23-1.45.8-.42,1.64-.67,2.54-.76.5-.05,1-.02,1.5.07.58.11,1.02.42,1.26.95.17.34.31.7.4,1.07.3,1.23.57,2.46.83,3.69.17.79.19,1.58.13,2.38-.03.33-.03.67,0,1,.03.51.27.91.69,1.21.21.15.43.29.63.44.06.04.11.1.19.18-.26.18-.53.24-.79.27-.4.04-.81.01-1.21-.08-.15-.04-.26-.1-.36-.22-.51-.59-.89-1.25-1.12-2-.03-.11-.05-.22-.04-.33.01-.21-.09-.34-.25-.43-.29-.15-.57-.3-.88-.4-.76-.25-1.55-.3-2.35-.23-.94.07-1.86.23-2.78.43-.13.02-.25.04-.4.07,0-.12-.02-.22-.01-.3.07-1.04.23-2.06.49-3.07.06-.22.07-.28-.03-.36.6-.01,1.2-.82,1.72-1.14.94-.57,2.02-.95,3.12-.9.2,0,.42.04.62.1.24.17.46.38.65.64.36.5.6,1.05.78,1.64.22.73.33,1.49.38,2.26,0,.09.01.18.07.29l.06-.13c.1-1.03.01-2.04-.3-3.02-.12-.39-.28-.75-.5-1.09-.73-1.11-1.84-1.67-3.29-1.45-.73.11-1.4.38-2.03.76-.63.37-1.19.83-1.73,1.32-.11.11-.23.21-.42.39v-1.59Z"/>
      <path class="cls-1" d="M66.24,86.14h.28l-.04-.13c-.06-.2-.09-.42-.09-.65,0-.21.03-.45.09-.64l.04-.12h-1.85l-.02-.13h.91l-.03-.13c-.07-.19-.09-.32-.09-.55,0-.22.04-.43.11-.65l.02-.11h-1.08l1.17-.11-1.15-.39-.11.5h-.91v.07c-.08.23-.12.46-.12.7,0,.25.02.38.08.61v.07h.61l.02.13h-1.34l-.02-.13h.71l-.03-.13c-.07-.19-.07-.32-.07-.55,0-.22.04-.43.1-.65l.03-.11h-.88l1.16-.11-1.13-.39-.13.5h-1.09l-.02.07c-.07.23-.1.46-.1.7,0,.25,0,.37.07.6l.02.07h.79l.02.13h-1.99l-.02.08c-.08.21-.11.45-.11.69,0,.09,0,.22.02.32h-2.02l.41,1.02h.53l.66.89h6.61l1.31-1.28h-1.22l-.12-.17ZM60.78,86.4l-.26-.25h.31l-.06.25ZM61.6,86.4h-.51l.05-.25h.51l-.05.25ZM61.79,85.68h-1.25c-.02-.08-.06-.24-.06-.41s.03-.33.06-.39h1.25c-.02.08-.05.22-.05.39s.02.32.05.41ZM61.72,84.1c-.03-.08-.06-.23-.06-.4,0-.18.03-.33.06-.4h1.25c-.02.09-.05.22-.05.4s.02.31.05.4h-1.25ZM62.65,86.4h-.4l.05-.25h.38l-.03.25ZM63.76,86.4h-.47l.05-.25h.46l-.04.25ZM63.9,85.6s0,.03.01.08h-1.26c-.01-.08-.03-.22-.05-.36v-.22c.03-.13.05-.21.07-.23h1.24c-.02.08-.05.22-.05.39,0,.12,0,.23.04.33ZM64.76,84.88h1.26c-.02.08-.05.22-.05.39s.02.32.05.41h-1.26c-.03-.08-.06-.24-.05-.41,0-.17.04-.33.05-.39ZM63.82,84.1c-.02-.08-.05-.23-.05-.4,0-.18.02-.33.05-.4h1.24c-.02.09-.04.22-.04.4s.02.31.04.4h-1.24ZM64.82,86.4h-.43l.06-.25h.42l-.05.25ZM65.48,86.4l.04-.25h.46l.15.25h-.65Z"/>
      <path class="cls-1" d="M65.56,95.57c-.05-.19-.07-.38-.07-.57,0-.17.03-.38.07-.55l.06-.25h-.61v-.64h-.74v.64h-.83v-.64h-.74v.64h-.84v-.64h-.74v.64h-.41l-.04.16c-.06.2-.08.41-.09.6l-.71.7h-1.17l.72,1.19,1.01.62h4.83l1.22-.77.27-1.04h-1.15l-.02-.1ZM61.83,95.37h-.66c-.01-.07-.02-.36-.02-.46,0-.09,0-.17.02-.23h.66c0,.07-.02.14-.02.23s0,.38.02.46ZM63.38,95.37h-.66c0-.07,0-.36,0-.46,0-.09,0-.17.02-.23h.65c-.01.07-.01.14-.01.23s0,.38,0,.46ZM64.93,95.37h-.66c0-.07-.02-.36-.02-.46,0-.09.01-.17.02-.23h.66c-.02.07-.02.14-.02.23s0,.38.01.46Z"/>
    </g>
    <g>
      <path class="cls-1" d="M40.57,43c-.03-.09-.06-.18-.09-.26-.39.13-.78.27-1.16.42-.26-.64-.52-1.28-.79-1.92-.11.04-.22.09-.33.13.32.72.62,1.44.92,2.17.48-.19.97-.37,1.46-.54Z"/>
      <path class="cls-1" d="M41.26,42.77c-.24-.74-.5-1.49-.76-2.23-.11.04-.23.07-.34.11.27.74.53,1.48.79,2.22.1-.04.21-.07.31-.1Z"/>
      <path class="cls-1" d="M42.76,42.34c.31-.08.52-.22.62-.43.07-.14.08-.28.05-.43-.05-.17-.13-.3-.27-.37-.08-.04-.19-.07-.32-.08.07-.06.13-.12.16-.18.07-.11.08-.24.04-.38-.03-.12-.1-.22-.2-.3-.17-.13-.41-.15-.7-.08-.36.09-.72.2-1.08.3.25.74.49,1.49.73,2.24.33-.1.66-.19.99-.28ZM41.45,40.54c.2-.06.4-.12.61-.17.15-.04.27-.05.35-.05.15.02.24.1.29.25.04.15,0,.27-.1.35-.07.06-.17.1-.31.14-.2.05-.4.11-.6.16-.07-.23-.15-.46-.22-.69ZM42.41,41.3c.14-.04.26-.05.35-.04.17.02.28.11.33.28.02.1.02.19-.02.27-.06.13-.18.22-.38.27-.24.07-.47.13-.7.19-.08-.27-.16-.53-.24-.79.22-.06.44-.12.65-.18Z"/>
      <path class="cls-1" d="M45.8,41.7c-.02-.09-.03-.18-.05-.27-.5.08-.99.17-1.49.27-.06-.26-.12-.52-.18-.78.46-.1.92-.18,1.38-.26-.02-.09-.03-.18-.05-.27-.47.08-.93.16-1.39.26-.06-.23-.11-.47-.17-.69.51-.11,1.02-.2,1.54-.29-.02-.1-.04-.19-.06-.28-.64.1-1.27.22-1.89.36.19.76.38,1.52.56,2.28.59-.13,1.19-.24,1.79-.34Z"/>
      <path class="cls-1" d="M79.36,39.86c.02-.26-.08-.45-.31-.56-.12-.06-.28-.09-.47-.1-.4-.02-.79-.04-1.18-.04-.03.76-.05,1.52-.07,2.27.11,0,.22,0,.32,0,.01-.33.02-.65.03-.98.25,0,.51.02.76.03.14,0,.23.03.29.06.11.06.16.16.15.31,0,.13,0,.25,0,.38,0,.09,0,.15,0,.18l.02.08c.13,0,.26.02.39.03v-.05s-.07-.07-.08-.15c-.01-.04-.01-.11,0-.19,0-.1.01-.21.01-.31,0-.13-.01-.23-.05-.29-.04-.06-.11-.11-.2-.15.11-.05.2-.11.27-.19.07-.08.11-.19.13-.32ZM78.85,40.17c-.1.05-.22.07-.38.06-.26-.01-.51-.03-.77-.03.01-.26.02-.52.03-.78.28,0,.56.02.84.03.12,0,.21.03.28.06.13.07.18.18.17.35-.01.15-.07.25-.16.3Z"/>
      <path class="cls-1" d="M80.97,39.41c-.34-.04-.69-.08-1.03-.12-.09.75-.17,1.51-.25,2.26.32.03.63.07.95.1.4.05.71-.07.94-.39.13-.18.21-.38.25-.62.06-.3.02-.57-.11-.79-.15-.25-.4-.4-.75-.45ZM81.48,40.65c-.01.07-.03.15-.06.24-.05.13-.12.25-.19.33-.1.1-.21.16-.34.19-.07.01-.16,0-.27,0-.19-.02-.38-.05-.57-.07.06-.58.14-1.15.21-1.73.2.02.4.05.6.07.27.03.46.14.56.31.1.17.12.4.07.67Z"/>
      <path class="cls-1" d="M82.76,39.98c.49.09.98.2,1.47.32.02-.09.05-.18.07-.27-.6-.15-1.2-.27-1.81-.38-.15.74-.3,1.49-.43,2.23.57.1,1.14.22,1.7.36.02-.09.05-.17.07-.26-.47-.11-.94-.21-1.41-.3.05-.25.1-.5.15-.76.44.08.88.18,1.32.28.02-.08.04-.17.06-.25-.44-.1-.88-.2-1.33-.28.05-.23.09-.45.14-.68Z"/>
      <path class="cls-1" d="M85.8,42.36c-.19-.7-.4-1.41-.64-2.11-.13-.04-.26-.07-.39-.1-.2.73-.41,1.46-.6,2.2.1.02.19.05.29.07.16-.59.33-1.18.5-1.77.24.7.46,1.4.65,2.11.11.04.23.07.34.11.24-.72.49-1.44.74-2.15-.1-.03-.21-.07-.31-.1-.2.58-.39,1.17-.59,1.75Z"/>
      <path class="cls-1" d="M72.91,39.39c-.21.39-.4.79-.6,1.18-.29-.33-.58-.65-.89-.97-.14.02-.27.05-.41.07.4.39.79.78,1.17,1.18.04.3.09.6.13.91.11-.02.22-.03.33-.05-.04-.3-.08-.61-.12-.91.25-.49.52-.98.8-1.47-.13.02-.27.03-.41.05Z"/>
      <path class="cls-1" d="M75.67,39.1c-.44.01-.77.18-.97.47-.16.23-.22.5-.21.8.02.34.14.62.34.82.23.22.53.32.89.3.39-.02.69-.15.91-.42.18-.23.28-.51.29-.85,0-.31-.07-.57-.24-.77-.21-.26-.55-.39-1-.37ZM76.38,40.92c-.13.2-.33.3-.62.31-.3.01-.53-.06-.67-.23-.14-.16-.23-.37-.24-.62-.01-.31.06-.56.21-.73.16-.17.38-.26.64-.27.27-.01.49.07.64.22.16.16.24.38.23.64,0,.25-.07.48-.19.68Z"/>
      <path class="cls-1" d="M48.32,41.34c-.06-.01-.1-.06-.13-.13-.01-.04-.03-.11-.04-.2-.01-.1-.03-.21-.05-.31-.02-.13-.05-.23-.11-.29-.06-.06-.14-.1-.24-.13.11-.06.19-.14.24-.24.05-.09.08-.21.05-.36-.03-.26-.17-.44-.44-.51-.14-.04-.31-.05-.51-.03-.41.05-.82.1-1.22.16.14.77.28,1.54.4,2.31.11-.01.22-.03.33-.05-.05-.33-.1-.66-.15-.99.26-.03.52-.07.79-.1.14-.01.24-.01.32,0,.12.04.19.14.22.29.02.13.05.26.07.39.02.09.02.15.04.18l.04.07c.14-.01.28-.03.41-.04v-.06ZM47.58,40.1c-.09.07-.22.11-.38.13-.27.03-.54.06-.8.1-.04-.27-.09-.53-.13-.8.29-.04.58-.07.87-.11.13-.02.23,0,.3.02.14.05.23.15.25.32.02.15-.01.27-.1.33Z"/>
      <path class="cls-1" d="M49.13,39.27c.06.69.11,1.38.16,2.07.11,0,.23-.01.34-.02-.04-.69-.08-1.38-.14-2.07.3-.01.6-.02.9-.03,0-.09-.01-.19-.01-.28-.73.01-1.46.05-2.18.1.01.09.02.19.03.28.3-.02.6-.04.89-.06Z"/>
      <path class="cls-1" d="M50.68,41.3c.09-.24.17-.47.26-.71.34,0,.68,0,1.03.01.09.24.17.48.25.71.13,0,.25.01.38.01-.28-.8-.6-1.59-.94-2.38-.14,0-.28,0-.41,0-.32.78-.62,1.56-.91,2.36.11,0,.23,0,.35,0ZM51.43,39.3c.14.35.28.69.41,1.05-.27,0-.54-.01-.82-.01.13-.35.27-.69.4-1.04Z"/>
      <path class="cls-1" d="M54.93,41c.12-.19.2-.41.22-.66.03-.32-.04-.6-.21-.82-.19-.25-.48-.4-.85-.43-.37-.03-.74-.06-1.11-.08-.01.79-.04,1.57-.07,2.35.34.02.69.05,1.03.08.44.04.77-.1.98-.43ZM53.28,41.1c.03-.6.06-1.2.07-1.81.22.01.44.03.65.05.3.02.51.13.63.3.12.17.18.41.15.7,0,.07-.02.16-.05.24-.04.15-.1.26-.18.35-.1.11-.21.18-.36.21-.07.02-.17.02-.29,0-.21-.02-.42-.04-.63-.05Z"/>
    </g>
    <path class="cls-1" d="M49.09,20.29c-.19-.22-.19-.6-.07-.85.04-.07.08-.15.14-.21.05-.05.14-.08.19-.13-.24.27-.75.16-.9-.16-.15-.33.06-.75.4-.88-.28.05-.53.2-.79.29-.27.1-.59.12-.81-.05-.22-.18-.25-.5-.15-.76.1-.26.29-.47.49-.67-.44.1-.83.53-1.26.39-.43-.14-.48-.76-.25-1.14.23-.39.63-.65.88-1.03-.66.31-1.35.55-2.06.72-.25.06-.54.1-.74-.07-.14-.12-.12-.36-.01-.48l-1,.33c-.23.08-.48.15-.71.09-.23-.07-.41-.36-.28-.56-.35.21-.74.44-1.16.39-.25-.03-.43-.14-.56-.36-.15-.26-.03-.38.18-.56-.4.16-.79.65-.67,1.1.09.33.48.5.82.47.34-.03.65-.21.94-.39,0,.29.23.52.51.63-.72.6-1.32,1.35-1.73,2.19-.12.24-.22.49-.22.75,0,.26.12.54.35.67.23.13.58.04.68-.21-.09.27.01.59.24.76.23.17.57.19.81.04-.04.32-.04.67.12.95.16.29.51.49.82.4-.47.14,1.18,1.75,1.01.57-.06-.41-.39-.63-.33-1.12.05-.47.32-.9.56-1.3.27-.46.55-.93.83-1.4-.74.9-1.36,1.88-1.87,2.93-.47-.67-.12-1.58.27-2.29.36-.65.75-1.29,1.17-1.9-1.02.62-1.35,1.91-2.1,2.82-.11.13-.28.27-.43.19-.04-1.24.4-2.5,1.21-3.45-.68.55-1.2,1.25-1.74,1.94-.18.23-.39.47-.68.51-.21-.58.06-1.22.4-1.74.28-.42.61-.81.83-1.26.07.02.15.03.23.02.43-.02.82-.25,1.18-.48,0,.22.31.28.53.27.44-.01.89-.02,1.33-.04-.31.28-.4.78-.2,1.15.21.37.68.56,1.09.45-.34.38-.07,1.06.42,1.21.42.13.88-.07,1.17-.4-.04.05-.07.12-.1.17-.03.06-.06.12-.08.19-.05.13-.07.27-.05.41.02.12.07.24.14.34.06.1.15.17.26.22.05.02.11.03.17.03.14,0,.25-.06.35-.14-.07.13-.15.25-.22.38s-.12.27-.14.42c-.05.34.25.63.57.68.18.03.38,0,.54-.1.37-.21.58-.62.75-1.02-.28.38-.94.4-1.24.04Z"/>
    <path class="cls-1" d="M82.6,12.62s.07-.02.11-.03c.14-.06.28-.17.3-.34.01-.12-.03-.24-.1-.34-.08-.13-.19-.24-.32-.33-.1-.03-.2-.07-.3-.11,0,0-.11,0-.38-.11.12.07.24.16.29.3.05.13.02.3-.11.37-.1.06-.23.04-.35.02-.28-.06-.56-.11-.84-.17.33.28.71.51,1.12.66.18.07.38.12.57.08Z"/>
    <path class="cls-1" d="M77.22,21.26c.06.15.11.3.15.45-.02-.18-.05-.36-.08-.54-.02.03-.05.06-.07.09Z"/>
    <polygon class="cls-1" points="76.12 21.25 76.12 21.26 76.12 21.26 76.12 21.25"/>
    <path class="cls-1" d="M25.74,22.72c.61-.22,1.31.06,1.91-.17.42-.16.71-.53.97-.88.51-.68,1.02-1.35,1.52-2.02-.72.69-1.52,1.29-2.38,1.8-.21.13-.45.25-.7.23-.25-.02-.49-.25-.42-.49.03-.1.11-.18.19-.26.23-.22.47-.44.7-.66-1.98,1.3-3.82,2.91-5.56,4.51-.91.84-2.75,2.29-2.72,3.69.84-.23,1.81-1.57,2.45-2.17,1.06-1,2.13-1.99,3.19-2.99.25-.23.5-.47.82-.58Z"/>
    <path class="cls-1" d="M30.65,18.56c.27-.01.51.12.77.2.67.2,1.42.01,2.02-.34.6-.36,1.09-.87,1.57-1.38-.58.39-1.19.71-1.84.98-.21.08-.43.17-.65.15-.23-.02-.46-.15-.51-.36-.04-.16.02-.33.1-.47.2-.37.53-.67.91-.85-1.04.48-3.97,1.68-4.13,2.93.38-.04.76-.39,1.12-.6.2-.12.41-.24.65-.24Z"/>
    <path class="cls-1" d="M28.27,27.18c.07-.13.15-.25.24-.37-.07.09-.21.16-.3.22-.11.07-.22.13-.33.18-.33.16-.7.27-1.06.31-.18.02-.36.01-.54.02-.19.01-.39,0-.56-.09-.19-.1-.22-.31-.19-.51,0-.04.02-.09.04-.13.09-.22.22-.42.4-.58-.65.43-1.39.75-2.17.91-.12.02-.25.04-.35-.02-.22-.13-.11-.47.02-.68.63-.98,1.41-1.84,2.27-2.62-.92.6-1.77,1.34-2.51,2.14-.31.33-.62.77-.47,1.2.13.37.57.57.97.54.4-.03.77-.23,1.12-.42.18-.1.37-.2.55-.3-.13.27-.2.57-.19.88,0,.24.13.47.37.55.16.05.35.02.51-.02.82-.19,1.57-.61,2.18-1.18,0-.01,0-.02.01-.04Z"/>
    <path class="cls-1" d="M28.21,27.41s0-.05,0-.07c-.13.25-.2.54-.07.78.13.26.46.37.75.34.29-.03.56-.18.79-.35.71-.51,1.29-1.2,1.65-1.98-.78.56-1.63,1.03-2.53,1.4-.21.09-.55.12-.6-.11Z"/>
    <path class="cls-1" d="M29.54,25.74c.56-.47,1.31-.98,1.74-1.55-.75-.22-1.79.89-2.28,1.37-.23.21-.46.48-.43.79.38-.1.68-.35.98-.6Z"/>
    <path class="cls-1" d="M33.8,25.16c-.12-.86-1.79.8-1.99,1-.18.17-.36.41-.26.63.4-.11,2.31-1.15,2.25-1.62Z"/>
    <path class="cls-1" d="M77.22,21.26c.06.15.11.3.15.45-.02-.18-.05-.36-.08-.54-.02.03-.05.06-.07.09Z"/>
    <polygon class="cls-1" points="76.12 21.25 76.12 21.26 76.12 21.26 76.12 21.25"/>
    <path class="cls-1" d="M36.02,14.94c.12.08.27.07.4.05.28-.04.63-.12.84-.31-.32-.36-.19-.7.13-1.02.68-.68,1.51-1.23,2.41-1.58-.13.06-.28-.08-.28-.22,0-.14.08-.27.17-.38.63-.76,1.53-1.3,2.5-1.52.03,0,.14.08.17.09.07.03.14.05.21.06.14.03.29.03.43,0,.23-.04.63-.17.73-.41-.04-.02-.09-.06-.1-.11-.01-.08.05-.15.11-.21.18-.18.38-.34.57-.5.03-.02.06-.06.05-.1,0-.03-.5.18-.54.2-.07.04-.82.34-.99.4-.69.26-1.39.46-2.07.73-.66.26-1.31.59-1.84,1.08-.13.12-.25.26-.29.43-.04.17.04.37.21.42-1.14.36-2.14,1.12-2.79,2.12-.15.24-.27.6-.03.76Z"/>
    <path class="cls-1" d="M34.16,20.02c.28-.07.52-.24.76-.38.07-.04.15-.08.21-.03.06.04.06.12.07.19.03.33.37.58.71.6.34.02.67-.12.95-.31,0,.06-.02.12-.02.19.14.22.41.32.67.33.26,0,.51-.07.76-.14.32-.1.66-.21.83-.49-.16.16-.36.33-.58.3-.25-.04-.4-.33-.36-.58.04-.25.2-.46.37-.65-.43.26-.91.47-1.39.61-.2.06-.42.1-.62.05-.2-.06-.39-.24-.37-.44.01-.11.08-.22.16-.3.12-.13.27-.24.43-.32-.4.16-.8.32-1.2.49-.3.12-.61.24-.93.22-.32-.02-.65-.23-.7-.55-.02-.13.01-.25.07-.37-.05.04-.11.07-.16.11-.21.16-.4.34-.51.57-.11.23-.11.53.05.72.18.22.51.26.79.19Z"/>
    <path class="cls-1" d="M42.45,10.87c.06-.2.2-.36.37-.48-.46.15-.84.5-1.04.93-.03.06-.05.14,0,.19.03.03.07.04.11.04.35.07.72.05,1.07-.03-.13,0-.26-.02-.36-.1-.16-.13-.2-.37-.14-.56Z"/>
    <path class="cls-1" d="M98.78,21.77c-.25.02-.48-.1-.7-.23-.86-.51-1.65-1.11-2.37-1.8.51.67,1.01,1.35,1.52,2.02.27.36.56.72.97.88.6.23,1.31-.04,1.92.17.32.11.58.35.82.58,1.06,1,2.13,1.99,3.19,2.98.64.6,1.61,1.94,2.45,2.17.03-1.39-1.81-2.84-2.72-3.68-1.73-1.6-3.57-3.21-5.56-4.51.23.22.47.44.7.66.08.07.16.16.19.26.07.24-.17.47-.42.49Z"/>
    <path class="cls-1" d="M92.41,18.51c.6.36,1.35.54,2.02.34.25-.08.5-.21.77-.2.23,0,.45.12.65.24.36.21.74.57,1.12.6-.16-1.24-3.09-2.44-4.13-2.92.39.18.71.48.91.85.08.14.14.31.1.47-.05.22-.29.35-.51.36s-.44-.07-.65-.15c-.64-.27-1.26-.59-1.84-.98.48.51.97,1.02,1.57,1.38Z"/>
    <path class="cls-1" d="M89.54,19.05c.08.09.15.19.16.3.02.2-.16.39-.36.44-.2.05-.42.01-.62-.05-.49-.14-.96-.34-1.4-.61.17.19.33.4.37.65.04.25-.11.54-.36.58-.23.03-.42-.14-.59-.3.17.28.52.39.84.49.25.07.5.15.77.14.34,0,.47-.14.64-.4.07-.11.09-.06.21,0,.23.12.48.2.74.19.34-.02.68-.27.71-.6,0-.07,0-.15.07-.19.06-.04.15,0,.21.03.25.15.49.31.76.38.28.07.61.03.79-.19.16-.2.16-.49.05-.72-.11-.23-.3-.41-.51-.57-.05-.04-.11-.07-.16-.1.05.12.08.24.07.36-.04.31-.37.53-.7.55-.32.02-.63-.1-.93-.22-.47-.19-.93-.37-1.4-.56.24.07.46.22.63.4Z"/>
    <path class="cls-1" d="M102.13,27.8c.4.03.85-.17.98-.54.14-.43-.17-.87-.47-1.2-.74-.81-1.59-1.54-2.51-2.14.86.78,1.64,1.64,2.27,2.62.14.22.24.55.02.68-.1.06-.23.04-.35.02-.76-.16-1.49-.47-2.13-.89.13.1.22.24.31.39.06.1.13.21.19.32.2.11.4.22.59.33.35.19.72.39,1.12.42Z"/>
    <path class="cls-1" d="M96.47,23.07s-.08-.04-.12-.06c.13.02.27.03.41.03.11,0,.22,0,.31-.06.24-.15.15-.51,0-.75-.27-.45-.63-.81-1-1.18.25.27.59.78.3,1.04-.09.08-.21.09-.33.1-.63.03-1.26-.13-1.8-.44.13.2.1.55-.12.7-.31.23-.75.15-1.13.04-.91-.27-1.78-.67-2.57-1.19.5.31.94.7,1.31,1.15.1.12.2.27.2.42-.02.38-.55.46-.94.4-.95-.14-1.88-.43-2.75-.85.53.29.99.71,1.33,1.22.07.11.14.24.12.36-.05.29-.46.33-.76.27-.99-.18-1.96-.51-2.85-.96.09.53-.42,1.08-.96,1.04.27.18.64.2.94.07.14-.06.28-.16.43-.17.2-.01.37.12.53.23.74.51,1.69.71,2.57.54.23-.04.47-.12.58-.32.25-.48-.5-.88-.7-1.38.53.22,1.07.39,1.63.51.32.07.66.11.96-.03s.48-.53.29-.79c.47.32.98.65,1.55.63.57-.02,1.14-.58.94-1.1.39.22.81.36,1.25.44-.04,0-.07.02-.1.05.28-.23,2.75,2.74,3.6,2.51-.39-1.09-2.15-1.91-3.13-2.46Z"/>
    <path class="cls-1" d="M94.57,24.28c.43.57,1.17,1.08,1.74,1.55.29.25.6.5.98.6.02-.31-.21-.57-.43-.79-.49-.47-1.53-1.58-2.28-1.36Z"/>
    <path class="cls-1" d="M92.04,25.25c-.06.47,1.84,1.52,2.25,1.62.11-.22-.08-.46-.25-.62-.2-.2-1.87-1.86-1.99-1Z"/>
    <path class="cls-1" d="M83.96,11.66s.08-.02.11-.04c.05-.05.02-.13,0-.19-.2-.43-.59-.78-1.04-.93.17.12.31.28.37.48s.01.43-.14.56c-.1.08-.23.11-.36.11.35.08.72.09,1.07.03Z"/>
    <polygon class="cls-1" points="76.12 21.25 76.12 21.26 76.12 21.26 76.12 21.25"/>
    <path class="cls-1" d="M34.16,20.02c.28-.07.52-.24.76-.38.07-.04.15-.08.21-.03.06.04.06.12.07.19.03.33.37.58.71.6.34.02.67-.12.95-.31,0,.06-.02.12-.02.19.14.22.41.32.67.33.26,0,.51-.07.76-.14.32-.1.66-.21.83-.49-.16.16-.36.33-.58.3-.25-.04-.4-.33-.36-.58.04-.25.2-.46.37-.65-.43.26-.91.47-1.39.61-.2.06-.42.1-.62.05-.2-.06-.39-.24-.37-.44.01-.11.08-.22.16-.3.12-.13.27-.24.43-.32-.4.16-.8.32-1.2.49-.3.12-.61.24-.93.22-.32-.02-.65-.23-.7-.55-.02-.13.01-.25.07-.37-.05.04-.11.07-.16.11-.21.16-.4.34-.51.57-.11.23-.11.53.05.72.18.22.51.26.79.19Z"/>
    <path class="cls-1" d="M42.45,10.87c.06-.2.2-.36.37-.48-.46.15-.84.5-1.04.93-.03.06-.05.14,0,.19.03.03.07.04.11.04.35.07.72.05,1.07-.03-.13,0-.26-.02-.36-.1-.16-.13-.2-.37-.14-.56Z"/>
    <path class="cls-1" d="M36.02,14.94c.12.08.27.07.4.05.28-.04.63-.12.84-.31-.32-.36-.19-.7.13-1.02.68-.68,1.51-1.23,2.41-1.58-.13.06-.28-.08-.28-.22,0-.14.08-.27.17-.38.63-.76,1.53-1.3,2.5-1.52.03,0,.14.08.17.09.07.03.14.05.21.06.14.03.29.03.43,0,.23-.04.63-.17.73-.41-.04-.02-.09-.06-.1-.11-.01-.08.05-.15.11-.21.18-.18.38-.34.57-.5.03-.02.06-.06.05-.1,0-.03-.5.18-.54.2-.07.04-.82.34-.99.4-.69.26-1.39.46-2.07.73-.66.26-1.31.59-1.84,1.08-.13.12-.25.26-.29.43-.04.17.04.37.21.42-1.14.36-2.14,1.12-2.79,2.12-.15.24-.27.6-.03.76Z"/>
    <path class="cls-1" d="M49.16,13.46c.1-.07.2-.15.3-.23-.11.07-.21.14-.3.23Z"/>
    <path class="cls-1" d="M50.38,18.23c-.08.16-.15.35-.13.53.02.18.15.36.33.39-.24.37-.57,1.55.29,1.39h0c-.08-.36-.23-.52-.1-.91.11-.33.58-1.01.89-1.17-.25.12-.45.42-.72.35-.17-.04-.27-.21-.28-.38-.01-.17.06-.33.13-.48.22-.41.52-.79.88-1.08-.57.3-1.03.78-1.31,1.35Z"/>
    <path class="cls-1" d="M71.26,20.06c.5-.54.35-1.37.17-2.08.48-.23.77-.79.66-1.31-.04-.2-.14-.4-.29-.55-.14-.14-.34-.15-.46-.32-.01-.02-.02-.04,0-.06,0,0,.01,0,.02,0,.1,0,.18.05.28.07.1.02.21,0,.25-.09.02-.04.02-.08.01-.13,0-.07-.03-.14-.05-.21-.15-.55-.27-1.03-.66-1.46.13.15.27.28.42.41.05.04.09.08.15.11.06.03.13.04.18,0,.08-.04.11-.14.11-.23,0-.17-.08-.31-.14-.46-.07-.19-.18-.38-.29-.55-.04-.07-.31-.54-.42-.52.09-.02.16-.02.24.03.23.15.48.24.75.24.03,0,.07,0,.1-.02.04-.02.06-.05.08-.08.1-.15.14-.34.14-.53,0-.5-.3-.88-.56-1.29.28.28.71.32,1.1.35.24.01.57-.05.58-.28,0-.09-.05-.18-.1-.25-.15-.22-.32-.41-.51-.59.01.02.01.09.01.11,0,.04,0,.07-.01.11-.02.09-.08.18-.15.24-.07.07-.15.11-.24.13-.1.02-.2.02-.3.02-.31-.02-.61-.1-.89-.22.21.11.43.3.54.52.08.16.25.4.24.58,0,.14-.09.27-.19.37-.07.08-.16.15-.26.18-.08.02-.16,0-.23-.02-.3-.09-.28-.21-.44-.42-.06-.08-.18-.13-.27-.09,0,.44.16.87.42,1.21.02.03.05.06.07.09.13.15.28.29.31.48.01.09-.03.2-.12.21-.04,0-.07-.02-.1-.04-.1-.08-.15-.2-.22-.31-.07-.1-.2-.19-.32-.16,0,.58.31,1.11.58,1.63.05.1.1.21.07.32-.09.27-.37-.13-.44.22-.07.32.15.54.34.77.19.23.4.49.41.79,0,.14-.05.3-.18.33-.08.02-.17-.01-.24-.07s-.11-.14-.14-.21c-.16-.34-.29-.72-.35-1.09-.06-.37-.21-.73-.29-1.1-.15-.71-.12-1.44-.1-2.17.03-.7.04-1.38.34-2.02.33-.7.89-1.11,1.54-1.49.1-.06.25-.17.37-.19-.25.03-.51.07-.76.15-.92.29-1.67,1.08-1.89,2.01-.05.21-.07.43-.04.65,0,.01,0,.02,0,.03-.05.41-.07.82-.07,1.22,0,.66.03,1.32.2,1.96.17.65.48,1.26.66,1.9.19.65.24,1.37-.09,1.96-.23.41-1.69,1.04-1.59,1.45.14.58,1.76.03,2.04-.27Z"/>
    <path class="cls-1" d="M44.3,10.3c-.19-.1-.22-.42-.04-.5-.18.05-.37.11-.52.23-.16.13-.27.35-.2.54.09.26.42.34.69.34.76,0,1.51-.35,2.01-.92-.03.04-.06.08-.09.12-.12.19-.18.43-.07.62.17.29.61.26.93.15.52-.18,1.01-.45,1.43-.81-.1.14-.21.28-.24.45-.04.17.02.37.18.45.1.05.21.04.32.03.57-.08,1.15-.36,1.52-.8-.33.13-.85.31-1.14.02-.18-.18-.06-.54-.21-.71-.39-.44-1.48.63-2.22.2.13-.32.4-.56.68-.75h0c-.75.5-1.54.92-2.37,1.27-.21.09-.46.17-.66.07Z"/>
    <path class="cls-1" d="M50.92,10.7c.06.05.15.05.22.05.61.01,1.22-.22,1.68-.61.02-.08.05-.16.09-.22.15-.23.4-.38.64-.52-.38.19-.76.37-1.15.56-.26.13-.59.25-.83.09-.23-.16-.23-.5-.09-.73.15-.23.4-.37.64-.5-.35.18-.71.36-.98.65-.27.28-.44.69-.34,1.07.02.07.05.13.1.18Z"/>
    <path class="cls-1" d="M54.38,9.93c.21.29.38.64.32,1-.06.35-.42.67-.77.58-.07-.02-.13-.05-.16-.11-.02-.06,0-.13.03-.19.13-.26.34-.49.6-.63-.28.12-.58.2-.89.22-.19.01-.39,0-.54-.11-.15-.12-.19-.31-.15-.5-.19.18-.36.38-.51.6-.05.07-.1.16-.1.25,0,.24.34.3.58.28.39-.02.82-.07,1.1-.35-.16.26-.33.53-.49.79-.09.14-.18.29-.15.45.04.24.33.38.58.34.25-.04.45-.2.64-.36.21-.17.42-.36.64-.51.13.25.13.56.31.79.17-.18.28-.49.33-.75.04-.22.01-.43-.04-.65-.22-.93-.96-1.72-1.89-2.01-.25-.08-.5-.12-.76-.15.52.22.98.57,1.32,1.03Z"/>
    <path class="cls-1" d="M47.44,11.91c.13.14-.18.44-.04.66.14.21.49.19.71.15.64-.13,1.26-.4,1.79-.8-.54.28-1.12.49-1.72.61-.08.02-.18.03-.26-.02-.06-.04-.08-.12-.1-.19-.05-.22-.05-.46,0-.69l-1.92-.09c-.17.06-.3.19-.38.35-.02.05-.04.11-.01.16.04.07.13.08.21.07.3,0,1.59-.39,1.73-.22Z"/>
    <path class="cls-1" d="M50.59,13.69c-.31.26-.7.43-1.11.49-.12.02-.25.02-.36-.04-.17-.1-.19-.35-.09-.52.03-.06.07-.11.12-.16-.33.23-.68.42-1.06.56-.34.13-.8.18-1-.12-.14-.21-.06-.49.05-.68-.31.23-.42.74-.42,1.12,0,.18.02.36.13.5.15.19.41.24.65.23.46-.01.92-.2,1.25-.52.18.27.55.36.88.31.12-.02.24-.06.36-.11.06-.02.11-.06.17-.08.05-.02.11-.02.16-.05-.22.09-.42.33-.58.49-.1.11-.2.23-.2.37,0,.18.13.33.28.42.47.3,1.16.18,1.51-.25-.29.06-.59.07-.89.02-.25-.04-.58-.14-.47-.45.03-.1.09-.18.16-.26.26-.3.58-.42.94-.56-.21.03-.42.04-.63,0-.1-.02-.23-.07-.23-.17,0-.05.03-.1.06-.14.1-.14.22-.27.34-.39Z"/>
    <path class="cls-1" d="M44.73,9.55c.68-.07,1.36-.21,2.01-.41.1-.03.21-.09.26-.17-.13,0-.25-.01-.38-.03-.19-.03-.4-.1-.52-.25-.11-.16-.08-.42.1-.49-.64.11-1.23.45-1.65.94-.09.1-.17.27-.07.36.06.06.15.05.24.04Z"/>
    <path class="cls-1" d="M77.14,11.1c.11.01.22.02.32-.03.16-.08.21-.28.18-.45-.03-.17-.14-.31-.24-.45.42.35.91.63,1.42.81.33.11.76.14.93-.15.11-.19.05-.43-.07-.62-.02-.04-.06-.08-.09-.12.5.57,1.25.92,2.01.92.28,0,.6-.08.69-.34.07-.19-.04-.41-.2-.54-.15-.12-.33-.18-.52-.23.17.08.15.4-.04.5-.21.1-.45.02-.66-.07-.83-.35-1.62-.77-2.37-1.27h0c.28.19.55.43.68.75-.74.43-1.83-.64-2.22-.2-.15.17-.02.53-.21.71-.29.28-.8.11-1.13-.02.37.44.94.73,1.52.8Z"/>
    <path class="cls-1" d="M74.26,10.14c-.24.16-.57.04-.83-.08-.38-.19-.76-.37-1.15-.56.24.14.5.28.64.52.04.07.07.14.09.22.46.39,1.07.62,1.68.61.08,0,.16,0,.22-.06.06-.04.08-.11.1-.18.1-.37-.07-.78-.34-1.06-.27-.28-.63-.47-.98-.65.24.13.49.27.64.5.15.23.14.58-.08.74Z"/>
    <path class="cls-1" d="M80,11.59c-.19-.15-.41-.28-.6-.37.19.14.34.34.43.57-.37,0-.74-.03-1.1-.1-.19-.04-.63-.2-.7.05-.02.08.02.17.03.25.01.14,0,.29-.03.42-.02.07-.04.15-.1.19-.07.05-.17.03-.26.02-.6-.12-1.18-.33-1.72-.61.53.39,1.14.67,1.79.8.22.04.57.07.71-.15.14-.22-.17-.52-.04-.66.15-.16,1.43.22,1.73.22.08,0,.17,0,.2-.07.03-.05.01-.11-.01-.16-.07-.15-.19-.28-.33-.4Z"/>
    <path class="cls-1" d="M75.26,19.24c.18-.03.31-.21.33-.39.02-.18-.05-.36-.13-.53-.28-.57-.74-1.05-1.31-1.35.36.3.67.67.88,1.08.08.15.14.31.14.48-.01.17-.12.34-.28.38-.27.06-.48-.23-.73-.35.32.16.79.84.9,1.17.13.38-.01.55-.1.91-.06-.08-.14-.15-.22-.2-.17-.1-.37-.15-.51-.3l-.18.02c.15.05.21.22.25.37.08.27.21.53.37.76.05.08.13.16.22.17.18.02.28-.22.25-.4-.02-.15-.1-.3-.19-.42.33.06.48-.07.53-.28,0,0,0,0,0,0h0c.08-.34-.1-.88-.25-1.1Z"/>
    <polygon class="cls-1" points="75.51 20.35 75.51 20.34 75.51 20.34 75.51 20.35"/>
    <path class="cls-1" d="M75.42,14.49c-.21.04-.42.03-.63,0,.19.08.38.15.56.24.16.08.33.17.44.31.11.14.16.35.06.5-.09.14-.27.2-.44.22-.3.04-.6.03-.89-.02.35.43,1.04.55,1.51.25.15-.1.29-.25.28-.42,0-.14-.1-.26-.2-.37-.23-.25-.49-.47-.77-.65.28.17.57.35.89.4.32.05.7-.04.88-.31.33.32.79.51,1.25.52.24,0,.5-.05.65-.23.11-.14.13-.32.13-.5,0-.38-.11-.88-.42-1.12.11.2.18.48.04.68-.2.3-.66.25-1,.12-.37-.14-.73-.33-1.06-.56.05.05.09.1.13.16.09.17.07.42-.1.52-.1.06-.23.06-.36.04-.41-.06-.8-.23-1.11-.5.13.12.24.25.35.39.03.04.06.09.06.14,0,.1-.13.15-.23.17Z"/>
    <path class="cls-1" d="M76.69,13.56c-.09-.09-.2-.16-.3-.23.1.08.2.16.3.23Z"/>
    <path class="cls-1" d="M81.86,9.84c0,.06-.09.09-.14.07.35.46,1.08.6,1.58.29.97.22,1.86.76,2.5,1.52.09.11.18.23.18.37,0,.14-.16.28-.29.22.9.35,1.73.9,2.41,1.58.31.31.44.66.13,1.02.21.19.55.26.84.31.14.02.29.03.4-.05.24-.16.12-.53-.03-.76-.65-.99-1.65-1.76-2.79-2.12.17-.04.25-.25.21-.42-.04-.17-.16-.31-.29-.43-1.58-1.48-4.24-1.83-5.92-2.65.38.27.76.5,1.1.85.06.06.12.13.11.21Z"/>
    <path class="cls-1" d="M57.76,15.32c-.27,0-.49-.22-.49-.49s.22-.49.49-.49.49.22.49.49-.22.49-.49.49ZM57.76,14.62c-.12,0-.21.1-.21.21s.1.21.21.21.21-.1.21-.21-.1-.21-.21-.21Z"/>
  </g>
  <g>
    <path class="cls-1" d="M119.03,72.02v-.16c0-16.45,12.66-29.36,29.76-29.36,11.53,0,18.95,4.84,23.95,11.78l-11.77,9.11c-3.23-4.03-6.94-6.61-12.34-6.61-7.9,0-13.47,6.69-13.47,14.92v.16c0,8.47,5.56,15.08,13.47,15.08,5.89,0,9.35-2.74,12.74-6.85l11.77,8.39c-5.32,7.34-12.5,12.74-25,12.74-16.13,0-29.11-12.34-29.11-29.19Z"/>
    <path class="cls-1" d="M179.84,43.63h26.69c8.63,0,14.6,2.26,18.39,6.13,3.31,3.23,5,7.58,5,13.15v.16c0,8.63-4.6,14.36-11.61,17.34l13.47,19.68h-18.07l-11.37-17.1h-6.86v17.1h-15.65v-56.45ZM205.8,70.73c5.32,0,8.39-2.58,8.39-6.69v-.16c0-4.44-3.23-6.69-8.47-6.69h-10.24v13.55h10.32Z"/>
    <path class="cls-1" d="M235.89,72.02v-.16c0-16.45,12.66-29.36,29.76-29.36,11.53,0,18.95,4.84,23.95,11.78l-11.77,9.11c-3.23-4.03-6.94-6.61-12.34-6.61-7.9,0-13.47,6.69-13.47,14.92v.16c0,8.47,5.56,15.08,13.47,15.08,5.89,0,9.35-2.74,12.74-6.85l11.77,8.39c-5.32,7.34-12.5,12.74-25,12.74-16.13,0-29.11-12.34-29.11-29.19Z"/>
  </g>
  <g>
    <path class="cls-1" d="M136.39,118.54c-.26.2-.54.38-.85.53-.31.15-.64.26-1.01.33-.37.08-.78.11-1.23.11-.69,0-1.32-.13-1.91-.37-.59-.25-1.1-.59-1.52-1.02-.43-.43-.76-.94-1-1.53-.24-.59-.36-1.22-.36-1.89v-.03c0-.67.12-1.29.36-1.88.24-.58.58-1.1,1-1.54.43-.44.94-.79,1.54-1.04.6-.25,1.26-.38,1.98-.38.44,0,.84.04,1.2.11.36.07.69.17.98.29.29.13.57.28.82.45.25.18.48.37.7.59l-1.31,1.51c-.37-.33-.74-.59-1.12-.78s-.8-.28-1.28-.28c-.39,0-.76.08-1.09.23-.33.15-.62.36-.86.63-.24.27-.43.58-.56.93-.13.35-.2.73-.2,1.13v.03c0,.4.07.78.2,1.14.13.36.32.67.56.94.24.27.52.48.86.63.33.16.7.23,1.1.23.54,0,.99-.1,1.36-.29s.74-.46,1.1-.8l1.31,1.32c-.24.26-.49.49-.75.7Z"/>
    <path class="cls-1" d="M147.15,116.55c-.25.58-.6,1.1-1.04,1.54s-.97.79-1.58,1.04c-.61.25-1.28.38-2,.38s-1.39-.13-1.99-.38c-.61-.25-1.13-.6-1.57-1.03-.44-.43-.78-.94-1.03-1.52s-.37-1.21-.37-1.88v-.03c0-.67.13-1.29.37-1.88.25-.58.6-1.1,1.04-1.54.44-.44.97-.79,1.58-1.04.61-.25,1.28-.38,2-.38s1.39.13,1.99.38c.61.25,1.13.6,1.57,1.03.44.43.78.94,1.03,1.52.24.58.37,1.21.37,1.88v.03c0,.67-.13,1.3-.37,1.88ZM145.37,114.67c0-.4-.07-.78-.21-1.14-.14-.36-.33-.67-.59-.94s-.56-.48-.9-.64c-.35-.16-.73-.23-1.14-.23s-.8.08-1.14.23c-.34.15-.64.36-.88.63-.25.27-.44.58-.58.93-.14.35-.21.73-.21,1.13v.03c0,.4.07.78.21,1.14.14.36.33.67.59.94s.55.48.9.63c.34.16.72.23,1.14.23s.79-.08,1.14-.23c.35-.15.64-.36.89-.63s.44-.58.58-.93c.14-.35.21-.73.21-1.13v-.03Z"/>
    <path class="cls-1" d="M155.88,119.35v-6.11l-2.64,4h-.05l-2.61-3.96v6.07h-2.03v-9.36h2.22l2.46,3.96,2.46-3.96h2.22v9.36h-2.03Z"/>
    <path class="cls-1" d="M159.45,119.35v-9.36h2.06v9.36h-2.06Z"/>
    <path class="cls-1" d="M169.56,117.82c-.17.36-.4.66-.7.91-.3.24-.66.43-1.08.56s-.88.19-1.39.19c-.71,0-1.41-.12-2.1-.37-.69-.25-1.31-.62-1.87-1.13l1.22-1.46c.43.35.87.62,1.32.83.45.21.94.31,1.48.31.43,0,.76-.08,1-.23.24-.16.35-.37.35-.65v-.03c0-.13-.02-.25-.07-.35-.05-.1-.14-.2-.28-.29-.14-.09-.33-.18-.58-.27-.25-.09-.57-.18-.96-.28-.47-.12-.9-.25-1.29-.39-.38-.14-.71-.32-.98-.53s-.48-.47-.62-.78c-.15-.31-.22-.7-.22-1.16v-.03c0-.43.08-.81.24-1.16.16-.34.38-.64.67-.89.29-.25.63-.44,1.03-.58.4-.13.84-.2,1.32-.2.69,0,1.32.1,1.89.31.58.2,1.1.5,1.59.88l-1.07,1.55c-.42-.29-.83-.51-1.23-.68s-.8-.25-1.2-.25-.7.08-.9.23c-.2.16-.3.35-.3.58v.03c0,.15.03.28.09.39s.16.21.32.3c.15.09.36.17.62.25s.6.17,1,.28c.47.12.9.27,1.27.42.37.16.68.34.94.56s.45.47.58.77.19.65.19,1.06v.03c0,.46-.08.88-.25,1.24Z"/>
    <path class="cls-1" d="M170.9,119.35v-9.36h2.06v9.36h-2.06Z"/>
    <path class="cls-1" d="M183.66,116.55c-.25.58-.6,1.1-1.04,1.54s-.97.79-1.58,1.04c-.61.25-1.28.38-2,.38s-1.39-.13-1.99-.38c-.61-.25-1.13-.6-1.57-1.03-.44-.43-.78-.94-1.03-1.52s-.37-1.21-.37-1.88v-.03c0-.67.13-1.29.37-1.88.25-.58.6-1.1,1.04-1.54.44-.44.97-.79,1.58-1.04.61-.25,1.28-.38,2-.38s1.39.13,1.99.38c.61.25,1.13.6,1.57,1.03.44.43.78.94,1.03,1.52.24.58.37,1.21.37,1.88v.03c0,.67-.13,1.3-.37,1.88ZM181.88,114.67c0-.4-.07-.78-.21-1.14-.14-.36-.33-.67-.59-.94s-.56-.48-.9-.64c-.35-.16-.73-.23-1.14-.23s-.8.08-1.14.23c-.34.15-.64.36-.88.63-.25.27-.44.58-.58.93-.14.35-.21.73-.21,1.13v.03c0,.4.07.78.21,1.14.14.36.33.67.59.94s.55.48.9.63c.34.16.72.23,1.14.23s.79-.08,1.14-.23c.35-.15.64-.36.89-.63s.44-.58.58-.93c.14-.35.21-.73.21-1.13v-.03ZM178.33,109.26l1.51-2.37,1.75.76-1.71,1.61h-1.55Z"/>
    <path class="cls-1" d="M191.63,119.35l-4.53-5.95v5.95h-2.03v-9.36h1.9l4.39,5.76v-5.76h2.03v9.36h-1.75Z"/>
    <path class="cls-1" d="M137.18,129.51c-.24.57-.58,1.07-1.02,1.48-.44.42-.97.75-1.58.99-.61.24-1.28.36-2.01.36h-3.65v-9.36h3.65c.73,0,1.4.12,2.01.35.61.24,1.14.56,1.58.98.44.42.78.91,1.02,1.48.24.57.36,1.18.36,1.84v.03c0,.66-.12,1.28-.36,1.85ZM135.39,127.67c0-.41-.07-.79-.21-1.14-.14-.35-.33-.65-.58-.9-.25-.25-.54-.44-.89-.58-.35-.14-.73-.21-1.15-.21h-1.59v5.64h1.59c.42,0,.8-.07,1.15-.2.35-.13.64-.33.89-.58.24-.25.44-.54.58-.88.14-.34.21-.72.21-1.14v-.03Z"/>
    <path class="cls-1" d="M138.57,132.35v-9.36h7.05v1.83h-5.02v1.9h4.41v1.83h-4.41v1.97h5.08v1.83h-7.11Z"/>
    <path class="cls-1" d="M155.63,132.35l-2.01-3h-1.62v3h-2.06v-9.36h4.28c1.11,0,1.98.27,2.6.82.62.54.93,1.3.93,2.27v.03c0,.76-.19,1.38-.56,1.85-.37.48-.85.83-1.45,1.05l2.29,3.34h-2.41ZM155.67,126.18c0-.45-.14-.78-.43-1-.29-.22-.68-.33-1.19-.33h-2.05v2.69h2.09c.51,0,.9-.12,1.17-.36.27-.24.41-.56.41-.96v-.03Z"/>
    <path class="cls-1" d="M158.81,132.35v-9.36h7.05v1.83h-5.02v1.9h4.41v1.83h-4.41v1.97h5.08v1.83h-7.11Z"/>
    <path class="cls-1" d="M173.75,132.07c-.66.29-1.42.43-2.28.43-.73,0-1.4-.12-2-.36-.6-.24-1.12-.58-1.55-1-.43-.43-.77-.94-1.01-1.52-.24-.59-.36-1.23-.36-1.93v-.03c0-.67.12-1.29.37-1.88s.59-1.1,1.02-1.54c.44-.44.95-.79,1.55-1.04s1.25-.38,1.97-.38c.42,0,.8.03,1.14.09.34.06.66.14.96.25.29.11.57.24.83.4.26.16.51.34.75.55l-1.3,1.57c-.18-.15-.36-.29-.53-.4-.18-.12-.36-.21-.56-.29-.19-.08-.4-.14-.62-.19-.22-.04-.47-.07-.74-.07-.37,0-.72.08-1.05.23-.33.16-.61.37-.86.63-.25.26-.44.57-.58.92-.14.35-.21.73-.21,1.13v.03c0,.43.07.82.21,1.19.14.36.33.68.59.94.25.27.55.48.9.62.34.15.72.22,1.14.22.77,0,1.41-.19,1.94-.57v-1.35h-2.07v-1.78h4.07v4.07c-.48.41-1.05.76-1.72,1.05Z"/>
    <path class="cls-1" d="M184.37,130.13c-.19.53-.47.97-.82,1.32-.36.35-.79.61-1.3.79s-1.07.26-1.7.26c-1.26,0-2.25-.35-2.97-1.04-.72-.7-1.08-1.73-1.08-3.12v-5.35h2.06v5.3c0,.77.18,1.34.53,1.73s.85.58,1.48.58,1.13-.19,1.48-.56c.36-.37.54-.94.54-1.69v-5.36h2.06v5.28c0,.71-.1,1.33-.29,1.86Z"/>
    <path class="cls-1" d="M185.96,132.35v-9.36h2.06v7.5h4.67v1.86h-6.73Z"/>
    <path class="cls-1" d="M200.4,132.35l-.86-2.1h-3.96l-.86,2.1h-2.1l4.01-9.43h1.9l4.01,9.43h-2.15ZM197.57,125.39l-1.24,3.04h2.49l-1.24-3.04Z"/>
    <path class="cls-1" d="M210.67,131.53c-.26.2-.54.38-.85.53-.31.15-.64.26-1.01.33-.37.08-.78.11-1.23.11-.69,0-1.32-.13-1.91-.37-.59-.25-1.1-.59-1.52-1.02-.43-.43-.76-.94-1-1.53-.24-.59-.36-1.22-.36-1.89v-.03c0-.67.12-1.29.36-1.88.24-.58.58-1.1,1-1.54.43-.44.94-.79,1.54-1.04.6-.25,1.26-.38,1.98-.38.44,0,.84.04,1.2.11.36.07.69.17.98.29.29.13.57.28.82.45.25.18.48.37.7.59l-1.31,1.51c-.37-.33-.74-.59-1.12-.78s-.8-.28-1.28-.28c-.39,0-.76.08-1.09.23-.33.15-.62.36-.86.63-.24.27-.43.58-.56.93-.13.35-.2.73-.2,1.13v.03c0,.4.07.78.2,1.14.13.36.32.67.56.94.24.27.52.48.86.63.33.16.7.23,1.1.23.54,0,.99-.1,1.36-.29s.74-.46,1.1-.8l1.31,1.32c-.24.26-.49.49-.75.7Z"/>
    <path class="cls-1" d="M212.36,132.35v-9.36h2.06v9.36h-2.06Z"/>
    <path class="cls-1" d="M225.12,129.54c-.25.58-.6,1.1-1.04,1.54s-.97.79-1.58,1.04c-.61.25-1.28.38-2,.38s-1.39-.13-1.99-.38c-.61-.25-1.13-.6-1.57-1.03-.44-.43-.78-.94-1.03-1.52s-.37-1.21-.37-1.88v-.03c0-.67.13-1.29.37-1.88.25-.58.6-1.1,1.04-1.54.44-.44.97-.79,1.58-1.04.61-.25,1.28-.38,2-.38s1.39.13,1.99.38c.61.25,1.13.6,1.57,1.03.44.43.78.94,1.03,1.52.24.58.37,1.21.37,1.88v.03c0,.67-.13,1.3-.37,1.88ZM223.34,127.67c0-.4-.07-.78-.21-1.14-.14-.36-.33-.67-.59-.94s-.56-.48-.9-.64c-.35-.16-.73-.23-1.14-.23s-.8.08-1.14.23c-.34.15-.64.36-.88.63-.25.27-.44.58-.58.93-.14.35-.21.73-.21,1.13v.03c0,.4.07.78.21,1.14.14.36.33.67.59.94s.55.48.9.63c.34.16.72.23,1.14.23s.79-.08,1.14-.23c.35-.15.64-.36.89-.63s.44-.58.58-.93c.14-.35.21-.73.21-1.13v-.03ZM219.79,122.25l1.51-2.37,1.75.76-1.71,1.61h-1.55Z"/>
    <path class="cls-1" d="M233.09,132.35l-4.53-5.95v5.95h-2.03v-9.36h1.9l4.39,5.76v-5.76h2.03v9.36h-1.75Z"/>
    <path class="cls-1" d="M137.18,142.5c-.24.57-.58,1.07-1.02,1.48-.44.42-.97.75-1.58.99-.61.24-1.28.36-2.01.36h-3.65v-9.36h3.65c.73,0,1.4.12,2.01.35.61.24,1.14.56,1.58.98.44.42.78.91,1.02,1.48.24.57.36,1.18.36,1.84v.03c0,.66-.12,1.28-.36,1.85ZM135.39,140.66c0-.41-.07-.79-.21-1.14-.14-.35-.33-.65-.58-.9-.25-.25-.54-.44-.89-.58-.35-.14-.73-.21-1.15-.21h-1.59v5.64h1.59c.42,0,.8-.07,1.15-.2.35-.13.64-.33.89-.58.24-.25.44-.54.58-.88.14-.34.21-.72.21-1.14v-.03Z"/>
    <path class="cls-1" d="M138.57,145.34v-9.36h7.05v1.83h-5.02v1.9h4.41v1.83h-4.41v1.97h5.08v1.83h-7.11Z"/>
    <path class="cls-1" d="M157.42,144.52c-.26.2-.54.38-.85.53-.31.15-.64.26-1.01.33-.37.08-.78.11-1.23.11-.69,0-1.32-.13-1.91-.37-.59-.25-1.1-.59-1.52-1.02-.43-.43-.76-.94-1-1.53-.24-.59-.36-1.22-.36-1.89v-.03c0-.67.12-1.29.36-1.88.24-.58.58-1.1,1-1.54.43-.44.94-.79,1.54-1.04.6-.25,1.26-.38,1.98-.38.44,0,.84.04,1.2.11.36.07.69.17.98.29.29.13.57.28.82.45.25.18.48.37.7.59l-1.31,1.51c-.37-.33-.74-.59-1.12-.78s-.8-.28-1.28-.28c-.39,0-.76.08-1.09.23-.33.15-.62.36-.86.63-.24.27-.43.58-.56.93-.13.35-.2.73-.2,1.13v.03c0,.4.07.78.2,1.14.13.36.32.67.56.94.24.27.52.48.86.63.33.16.7.23,1.1.23.54,0,.99-.1,1.36-.29s.74-.46,1.1-.8l1.31,1.32c-.24.26-.49.49-.75.7Z"/>
    <path class="cls-1" d="M168.17,142.54c-.25.58-.6,1.1-1.04,1.54s-.97.79-1.58,1.04c-.61.25-1.28.38-2,.38s-1.39-.13-1.99-.38c-.61-.25-1.13-.6-1.57-1.03-.44-.43-.78-.94-1.03-1.52s-.37-1.21-.37-1.88v-.03c0-.67.13-1.29.37-1.88.25-.58.6-1.1,1.04-1.54.44-.44.97-.79,1.58-1.04.61-.25,1.28-.38,2-.38s1.39.13,1.99.38c.61.25,1.13.6,1.57,1.03.44.43.78.94,1.03,1.52.24.58.37,1.21.37,1.88v.03c0,.67-.13,1.3-.37,1.88ZM166.39,140.66c0-.4-.07-.78-.21-1.14-.14-.36-.33-.67-.59-.94s-.56-.48-.9-.64c-.35-.16-.73-.23-1.14-.23s-.8.08-1.14.23c-.34.15-.64.36-.88.63-.25.27-.44.58-.58.93-.14.35-.21.73-.21,1.13v.03c0,.4.07.78.21,1.14.14.36.33.67.59.94s.55.48.9.63c.34.16.72.23,1.14.23s.79-.08,1.14-.23c.35-.15.64-.36.89-.63s.44-.58.58-.93c.14-.35.21-.73.21-1.13v-.03Z"/>
    <path class="cls-1" d="M176.9,145.34v-6.11l-2.64,4h-.05l-2.61-3.96v6.07h-2.03v-9.36h2.22l2.46,3.96,2.46-3.96h2.22v9.36h-2.03Z"/>
    <path class="cls-1" d="M188.1,143.12c-.19.53-.47.97-.82,1.32-.36.35-.79.61-1.3.79s-1.07.26-1.7.26c-1.26,0-2.25-.35-2.97-1.04-.72-.7-1.08-1.73-1.08-3.12v-5.35h2.06v5.3c0,.77.18,1.34.53,1.73s.85.58,1.48.58,1.13-.19,1.48-.56c.36-.37.54-.94.54-1.69v-5.36h2.06v5.28c0,.71-.1,1.33-.29,1.86Z"/>
    <path class="cls-1" d="M196.25,145.34l-4.53-5.95v5.95h-2.03v-9.36h1.9l4.39,5.76v-5.76h2.03v9.36h-1.75Z"/>
    <path class="cls-1" d="M199.55,145.34v-9.36h2.06v9.36h-2.06Z"/>
    <path class="cls-1" d="M210.62,144.52c-.26.2-.54.38-.85.53-.31.15-.64.26-1.01.33-.37.08-.78.11-1.23.11-.69,0-1.32-.13-1.91-.37-.59-.25-1.1-.59-1.52-1.02-.43-.43-.76-.94-1-1.53-.24-.59-.36-1.22-.36-1.89v-.03c0-.67.12-1.29.36-1.88.24-.58.58-1.1,1-1.54.43-.44.94-.79,1.54-1.04.6-.25,1.26-.38,1.98-.38.44,0,.84.04,1.2.11.36.07.69.17.98.29.29.13.57.28.82.45.25.18.48.37.7.59l-1.31,1.51c-.37-.33-.74-.59-1.12-.78s-.8-.28-1.28-.28c-.39,0-.76.08-1.09.23-.33.15-.62.36-.86.63-.24.27-.43.58-.56.93-.13.35-.2.73-.2,1.13v.03c0,.4.07.78.2,1.14.13.36.32.67.56.94.24.27.52.48.86.63.33.16.7.23,1.1.23.54,0,.99-.1,1.36-.29s.74-.46,1.1-.8l1.31,1.32c-.24.26-.49.49-.75.7Z"/>
    <path class="cls-1" d="M219.18,145.34l-.86-2.1h-3.96l-.86,2.1h-2.1l4.01-9.43h1.9l4.01,9.43h-2.15ZM216.34,138.39l-1.24,3.04h2.49l-1.24-3.04Z"/>
    <path class="cls-1" d="M229.45,144.52c-.26.2-.54.38-.85.53-.31.15-.64.26-1.01.33-.37.08-.78.11-1.23.11-.69,0-1.32-.13-1.91-.37-.59-.25-1.1-.59-1.52-1.02-.43-.43-.76-.94-1-1.53-.24-.59-.36-1.22-.36-1.89v-.03c0-.67.12-1.29.36-1.88.24-.58.58-1.1,1-1.54.43-.44.94-.79,1.54-1.04.6-.25,1.26-.38,1.98-.38.44,0,.84.04,1.2.11.36.07.69.17.98.29.29.13.57.28.82.45.25.18.48.37.7.59l-1.31,1.51c-.37-.33-.74-.59-1.12-.78s-.8-.28-1.28-.28c-.39,0-.76.08-1.09.23-.33.15-.62.36-.86.63-.24.27-.43.58-.56.93-.13.35-.2.73-.2,1.13v.03c0,.4.07.78.2,1.14.13.36.32.67.56.94.24.27.52.48.86.63.33.16.7.23,1.1.23.54,0,.99-.1,1.36-.29s.74-.46,1.1-.8l1.31,1.32c-.24.26-.49.49-.75.7Z"/>
    <path class="cls-1" d="M231.13,145.34v-9.36h2.06v9.36h-2.06Z"/>
    <path class="cls-1" d="M243.89,142.54c-.25.58-.6,1.1-1.04,1.54s-.97.79-1.58,1.04c-.61.25-1.28.38-2,.38s-1.39-.13-1.99-.38c-.61-.25-1.13-.6-1.57-1.03-.44-.43-.78-.94-1.03-1.52s-.37-1.21-.37-1.88v-.03c0-.67.13-1.29.37-1.88.25-.58.6-1.1,1.04-1.54.44-.44.97-.79,1.58-1.04.61-.25,1.28-.38,2-.38s1.39.13,1.99.38c.61.25,1.13.6,1.57,1.03.44.43.78.94,1.03,1.52.24.58.37,1.21.37,1.88v.03c0,.67-.13,1.3-.37,1.88ZM242.11,140.66c0-.4-.07-.78-.21-1.14-.14-.36-.33-.67-.59-.94s-.56-.48-.9-.64c-.35-.16-.73-.23-1.14-.23s-.8.08-1.14.23c-.34.15-.64.36-.88.63-.25.27-.44.58-.58.93-.14.35-.21.73-.21,1.13v.03c0,.4.07.78.21,1.14.14.36.33.67.59.94s.55.48.9.63c.34.16.72.23,1.14.23s.79-.08,1.14-.23c.35-.15.64-.36.89-.63s.44-.58.58-.93c.14-.35.21-.73.21-1.13v-.03Z"/>
    <path class="cls-1" d="M251.86,145.34l-4.53-5.95v5.95h-2.03v-9.36h1.9l4.39,5.76v-5.76h2.03v9.36h-1.75Z"/>
    <path class="cls-1" d="M255.06,145.34v-9.36h7.05v1.83h-5.02v1.9h4.41v1.83h-4.41v1.97h5.08v1.83h-7.11Z"/>
    <path class="cls-1" d="M269.73,143.81c-.17.36-.4.66-.7.91-.3.24-.66.43-1.08.56s-.88.19-1.39.19c-.71,0-1.41-.12-2.1-.37-.69-.25-1.31-.62-1.87-1.13l1.22-1.46c.43.35.87.62,1.32.83.45.21.94.31,1.48.31.43,0,.76-.08,1-.23.24-.16.35-.37.35-.65v-.03c0-.13-.02-.25-.07-.35-.05-.1-.14-.2-.28-.29-.14-.09-.33-.18-.58-.27-.25-.09-.57-.18-.96-.28-.47-.12-.9-.25-1.29-.39-.38-.14-.71-.32-.98-.53s-.48-.47-.62-.78c-.15-.31-.22-.7-.22-1.16v-.03c0-.43.08-.81.24-1.16.16-.34.38-.64.67-.89.29-.25.63-.44,1.03-.58.4-.13.84-.2,1.32-.2.69,0,1.32.1,1.89.31.58.2,1.1.5,1.59.88l-1.07,1.55c-.42-.29-.83-.51-1.23-.68s-.8-.25-1.2-.25-.7.08-.9.23c-.2.16-.3.35-.3.58v.03c0,.15.03.28.09.39s.16.21.32.3c.15.09.36.17.62.25s.6.17,1,.28c.47.12.9.27,1.27.42.37.16.68.34.94.56s.45.47.58.77.19.65.19,1.06v.03c0,.46-.08.88-.25,1.24Z"/>
  </g>
</svg>